<?xml version="1.0" encoding="utf-8"?>
<!-- Generator: Adobe Illustrator 16.0.0, SVG Export Plug-In . SVG Version: 6.00 Build 0)  -->
<!DOCTYPE svg PUBLIC "-//W3C//DTD SVG 1.1//EN" "http://www.w3.org/Graphics/SVG/1.1/DTD/svg11.dtd">
<svg version="1.1" xmlns="http://www.w3.org/2000/svg" xmlns:xlink="http://www.w3.org/1999/xlink" x="0px" y="0px"
	 width="4245.398px" height="4373.226px" viewBox="0 0 4245.398 4373.226" enable-background="new 0 0 4245.398 4373.226"
	 xml:space="preserve">
<g id="Ebene_1">
</g>
<g id="Ebene_2">
	<path fill="#74452A" d="M1778.021,1716.488C1592.86,1516.389,410.322,391.091,554.679,236.715
		c28.408-30.433-178.279-103.81,1034.778-111.236l10.951,0.077c99.455,1.694,159.685,34.384,212.807,63.254
		c47.821,25.97,85.604,46.471,156.316,47.674c62.834,0.655,168.096-24.659,269.903-49.132
		c117.046-28.178,227.6-54.746,307.277-53.39c0.153,0.003,2.021,0.036,2.209,0.037
		c1421.295,33.774,1493.344,121.28,1524.109,158.668c92.081,111.931,82.285,1618.538,72.004,2031.306
		c-6.699,268.015-15.979,1672.712-103.632,1591.289C2280.964,2279.959,2271.693,2249.997,1778.021,1716.488z"/>
	<path opacity="0.5" fill="#F9D00A" d="M1370.402,394.716c202.929-1.269,453.221,147.285,666.114,149.552
		c165.104,1.715,494.235-160.792,656.454-156.935c136.973,3.256,448.836-32.15,575.742-23.813
		c86.49,5.715,227.479,68.706,308.737,76.22c75.308,7.058,437.469,7.883,507.767,16.124c283.774,33.427-69.271-49.832,19.477,59.982
		c-14.006-146.456-56.94-236.635-87.52-273.842c-66.824-81.161-480.002-64.265-1354.821-85.027
		c-162.219-3.858-509.334,121.786-674.429,120.025c-212.901-2.225-243.496-131.229-446.425-130
		c-768.915,4.723-979.166,9.297-1030.891,64.63c-29.608,31.676,117.181,85.266,93.26,240.844
		C900.914,245.956,789.929,398.276,1370.402,394.716z"/>
	<path fill="#40190B" d="M4042.443,3977.076c92.18-0.523,88.619,50.055,118.498-262.479
		c16.965-177.37,54.929-1159.591,60.625-1388.722c23.252-933.323-53.975-2038.513-89.433-2081.587
		c-52.778-64.149-125.085-151.726-1581.399-186.295c-0.373-0.005-2.395-0.038-2.727-0.045
		c-89.4-1.521-204.567,25.899-326.492,55.231c-92.723,22.304-197.831,47.453-248.778,46.882l-1.904-0.058
		c-51.986-0.921-76.511-14.236-121.07-38.472c-54.789-29.719-129.873-70.489-248.053-72.502c-4.152-0.07-8.444-0.115-12.748-0.077
		c-811.01,4.956-1044.267,44.308-1097.208,87.81c0,0-28.693,27.651-29.915,62.264l-0.866,6.703
		C448,320.198,580.796,505.342,894.75,854.978c246.809,274.86,697.82,696.666,1007.891,1040.973
		c112.867,125.342,239.373,252.05,367.562,384.683l124.656-120.483l-124.625,120.514l0.029,0.029
		c325.812,337.073,669.064,702.686,968.525,995.472c495.229,484.192,684.93,702.033,783.612,699.94
		C4022.401,3976.105,4017.318,3976.299,4042.443,3977.076z M1589.912,202.017c3.1-0.021,6.203,0.033,9.19,0.082
		c164.225,2.798,193.206,107.89,369.124,110.929c0.971,0.017,1.953-0.199,2.924-0.183c140.43,1.491,435.012-105.089,574.264-102.718
		c0.561,0.009,1.123,0.02,1.684,0.028c747.055,18.307,1383.229,61.203,1440.296,130.513
		c132.958,161.601,99.264,3329.486,13.037,3418.304c-114.938,1.69-919.771-889.341-1605.512-1598.811
		c-122.831-127.09-243.794-256.207-359.059-384.229C1511.249,1193.391,741.879,509.666,651.478,271.277
		C780.95,235.382,1099.055,205.032,1589.912,202.017z"/>
	<path fill="#251B14" d="M3808.648,617.686c82.221-2.415,160.571-0.771,158.457,114.562
		c-1.712,92.317-59.869,110.686-135.578,105.885c-87.887-5.541-179.674-32.389-184.247-128.672
		C3642.616,612.208,3736.491,617.959,3808.648,617.686z"/>
	<path fill="#251B14" d="M3503.139,806.569c66.465,4.8,108.874,48.662,103.913,118.429c-4.393,60.566-44.796,107.119-114.233,97.966
		c-76.923-10.11-114.935-60.47-115.701-138.059C3376.303,798.141,3438.381,806.063,3503.139,806.569z"/>
</g>
</svg>
