<?xml version="1.0" encoding="utf-8"?>
<!-- Generator: Adobe Illustrator 16.0.0, SVG Export Plug-In . SVG Version: 6.00 Build 0)  -->
<!DOCTYPE svg PUBLIC "-//W3C//DTD SVG 1.1//EN" "http://www.w3.org/Graphics/SVG/1.1/DTD/svg11.dtd">
<svg version="1.1" xmlns="http://www.w3.org/2000/svg" xmlns:xlink="http://www.w3.org/1999/xlink" x="0px" y="0px"
	 width="4245.398px" height="4373.226px" viewBox="0 0 4245.398 4373.226" enable-background="new 0 0 4245.398 4373.226"
	 xml:space="preserve">
<g id="Ebene_1">
</g>
<g id="Ebene_2">
	<path fill="#74452A" d="M2481.835,2649.772c185.16,200.097,1367.697,1325.394,1223.34,1479.771
		c-28.406,30.432,178.28,103.812-1034.777,111.237l-10.952-0.077c-99.452-1.692-159.684-34.381-212.805-63.254
		c-47.822-25.969-85.604-46.471-156.314-47.673c-62.837-0.655-168.1,24.657-269.903,49.131
		c-117.045,28.177-227.602,54.745-307.281,53.392c-0.153-0.006-2.019-0.039-2.209-0.039
		c-1421.295-33.775-1493.342-121.28-1524.108-158.667c-92.081-111.929-82.284-1618.542-72.003-2031.307
		c6.699-268.015,15.978-1672.712,103.631-1591.288C1978.889,2086.304,1988.161,2116.265,2481.835,2649.772z"/>
	<path fill="#F5871F" d="M2849.737,3938.529c-173.246,4.353-389.344-118.453-571.155-116.958
		c-140.995,1.193-419.395,145.247-557.963,144.567c-117.004-0.571-382.71,34.683-491.196,29.607
		c-73.94-3.482-195.334-54.994-264.836-60.102c-64.41-4.812-373.646,0.32-433.802-5.587
		c-242.829-23.97-233.041-108.015-310.584-200.345c14.321,124.82,34.528,298.575,61.238,329.851
		c58.363,68.222,721.766,99.44,1469.033,103.075c138.57,0.68,432.918-112.188,573.908-113.35
		c181.814-1.527,210.016,108.125,383.262,103.808c656.44-16.421,1051.439,104.896,1009.125-129.566
		c-6.574-36.438-456.053-503.157-44.898-118.599C3404.115,4064.577,3345.297,3926.134,2849.737,3938.529z"/>
	<path fill="#40190B" d="M217.409,389.183c-92.175,0.526-88.617-50.052-118.496,262.481
		C81.948,829.033,43.984,1811.256,38.288,2040.386c-23.251,933.323,53.976,2038.519,89.429,2081.592
		c52.779,64.155,125.088,151.736,1581.402,186.308c0.374,0.004,2.393,0.037,2.729,0.043c89.398,1.525,204.566-25.908,326.492-55.239
		c92.721-22.304,197.828-47.458,248.776-46.888l1.905,0.058c51.985,0.921,76.512,14.234,121.068,38.47
		c54.79,29.718,129.874,70.488,248.055,72.502c4.15,0.069,8.445,0.115,12.748,0.078c811.01-4.955,1044.268-44.31,1097.207-87.811
		c0,0,28.693-27.652,29.915-62.264l0.87-6.705c12.969-114.465-119.825-299.609-433.779-649.247
		c-246.809-274.86-697.819-696.665-1007.894-1040.972c-112.864-125.342-239.372-252.051-367.562-384.684l-124.656,120.482
		l124.627-120.512l-0.03-0.031c-325.811-337.073-669.062-702.685-968.525-995.473C525.838,605.907,336.135,388.062,237.453,390.155
		C237.453,390.155,242.535,389.962,217.409,389.183z M2669.941,4164.242c-3.098,0.021-6.2-0.031-9.19-0.082
		c-164.224-2.795-193.206-107.889-369.124-110.928c-0.971-0.014-1.949,0.208-2.922,0.191
		c-140.432-1.491-435.011,105.098-574.265,102.725c-0.56-0.007-1.125-0.018-1.684-0.028
		c-747.054-18.306-1383.231-61.209-1440.296-130.52C139.504,3863.996,173.198,696.107,259.425,607.29
		c114.935-1.692,919.768,889.341,1605.51,1598.81c122.832,127.087,243.795,256.207,359.058,384.228
		c524.613,582.543,1293.983,1266.268,1384.384,1504.655C3478.904,4130.879,3160.801,4161.229,2669.941,4164.242z"/>
	<path fill="#251B14" d="M508.437,3633.279c1.668,62.574-23.208,84.861-66.635,81.891c-57.006-3.814-102.907-32.9-108.402-91.348
		c-3.897-40.985,18.069-89.695,67.919-87.736C466.775,3538.674,496.357,3589.636,508.437,3633.279z"/>
</g>
</svg>
