<?xml version="1.0" encoding="utf-8"?>
<!-- Generator: Adobe Illustrator 16.0.0, SVG Export Plug-In . SVG Version: 6.00 Build 0)  -->
<!DOCTYPE svg PUBLIC "-//W3C//DTD SVG 1.1//EN" "http://www.w3.org/Graphics/SVG/1.1/DTD/svg11.dtd">
<svg version="1.1" id="Ebene_1" xmlns="http://www.w3.org/2000/svg" xmlns:xlink="http://www.w3.org/1999/xlink" x="0px" y="0px"
	 width="4245.398px" height="4373.226px" viewBox="0 0 4245.398 4373.226" enable-background="new 0 0 4245.398 4373.226"
	 xml:space="preserve">
<path fill="#A57A35" d="M1757.482,2680.643C1572.283,2880.779,389.508,4006.304,533.894,4160.71
	c28.413,30.439-178.315,103.834,1034.987,111.261l10.953-0.076c99.474-1.693,159.717-34.389,212.85-63.267
	c47.83-25.976,85.62-46.48,156.346-47.685c62.849-0.655,168.133,24.664,269.957,49.142c117.07,28.184,227.649,54.757,307.343,53.402
	c0.152-0.006,2.02-0.038,2.209-0.038c1421.582-33.782,1493.645-121.307,1524.417-158.7
	c92.099-111.951,82.3-1618.868,72.018-2031.716c-6.7-268.068-15.981-1673.049-103.652-1591.608
	C2260.526,2117.059,2251.256,2147.026,1757.482,2680.643z"/>
<path fill="#96602B" d="M1389.505,3969.658c173.281,4.354,389.422-118.478,571.269-116.981
	c141.024,1.193,419.481,145.276,558.078,144.598c117.026-0.573,382.787,34.688,491.294,29.614
	c73.957-3.484,195.374-55.006,264.89-60.115c64.423-4.814,373.721,0.32,433.888-5.589
	c242.879-23.973,233.09-108.036,310.648-200.385c-14.323,124.846-34.535,298.636-61.249,329.917
	c-58.375,68.235-721.912,99.462-1469.33,103.098c-138.598,0.679-433.005-112.21-574.023-113.373
	c-181.851-1.529-210.059,108.148-383.338,103.827c-656.573-16.422-1051.652,104.917-1009.329-129.591
	c6.576-36.445,456.145-503.262,44.908-118.623C835.015,4095.73,893.845,3957.26,1389.505,3969.658z"/>
<path fill="#40190B" d="M4002.315,420.569c-98.702-2.094-288.443,215.795-783.771,700.08
	c-299.523,292.847-642.844,658.533-968.721,995.674l-0.029,0.029l124.652,120.537l-124.682-120.507
	c-128.217,132.659-254.75,259.394-367.637,384.762c-310.137,344.374-761.237,766.266-1008.097,1041.181
	c-314.016,349.708-446.835,534.89-433.865,649.377l0.869,6.707c1.222,34.62,29.921,62.276,29.921,62.276
	c52.949,43.512,286.255,82.871,1097.428,87.829c4.304,0.036,8.599-0.009,12.751-0.079c118.204-2.014,193.303-42.793,248.104-72.515
	c44.565-24.24,69.097-37.557,121.094-38.479l1.904-0.056c50.959-0.571,156.087,24.587,248.828,46.897
	c121.948,29.335,237.14,56.774,326.558,55.25c0.334-0.007,2.354-0.039,2.729-0.045
	c1456.608-34.576,1528.932-122.177,1581.721-186.344c35.46-43.082,112.703-1148.502,89.447-2082.012
	c-5.697-229.176-43.669-1211.598-60.638-1389.002c-29.884-312.596-26.325-262.008-118.52-262.534
	C3997.232,420.375,4002.315,420.569,4002.315,420.569z M630.713,4126.143c90.419-238.436,859.945-922.3,1384.662-1504.958
	c115.287-128.047,236.274-257.192,359.131-384.305c685.88-709.611,1490.874-1600.825,1605.833-1599.133
	c86.245,88.836,119.945,3257.363-13.038,3419.001c-57.075,69.324-693.381,112.236-1440.586,130.546
	c-0.559,0.01-1.124,0.021-1.685,0.027c-139.281,2.373-433.921-104.236-574.381-102.743c-0.971,0.015-1.95-0.208-2.921-0.194
	c-175.955,3.041-204.943,108.156-369.199,110.952c-2.991,0.05-6.094,0.104-9.193,0.082
	C1078.378,4192.402,760.211,4162.046,630.713,4126.143z"/>
<path fill="#7E5C28" d="M3838.416,3567.134c49.86-1.959,71.831,46.761,67.933,87.755c-5.496,58.459-51.405,87.55-108.424,91.366
	c-43.435,2.971-68.316-19.32-66.648-81.907C3743.359,3620.695,3772.946,3569.721,3838.416,3567.134z"/>
<path fill="#CFBC9E" d="M2744.037,2919.318c-0.032-165.675-0.092-331.311,0.138-496.978c0-11.187-4.873-26.6,4.942-32.47
	c13.155-7.901,22.657,7.722,32.037,14.714c220.255,164.723,439.851,330.404,660.526,494.576
	c26.479,19.713,22.267,29.423-0.854,46.69c-219.506,163.842-438.361,328.5-657.733,492.486
	c-9.288,6.929-18.551,22.723-32.262,13.821c-11.679-7.58-6.632-23.516-6.657-35.836
	C2743.961,3250.641,2744.037,3084.976,2744.037,2919.318z"/>
</svg>
