<?xml version="1.0" encoding="utf-8"?>
<!-- Generator: Adobe Illustrator 16.0.0, SVG Export Plug-In . SVG Version: 6.00 Build 0)  -->
<!DOCTYPE svg PUBLIC "-//W3C//DTD SVG 1.1//EN" "http://www.w3.org/Graphics/SVG/1.1/DTD/svg11.dtd">
<svg version="1.1" id="Ebene_1" xmlns="http://www.w3.org/2000/svg" xmlns:xlink="http://www.w3.org/1999/xlink" x="0px" y="0px"
	 width="4245.398px" height="4373.227px" viewBox="0 0 4245.398 4373.227" enable-background="new 0 0 4245.398 4373.227"
	 xml:space="preserve">
<path fill="#A57A35" d="M2525.857,1687.298C2713.211,1484.83,3909.756,346.204,3763.688,190
	c-28.742-30.793,180.393-105.041-1047.032-112.553l-11.081,0.077c-100.633,1.713-161.575,34.791-215.327,64.003
	c-48.387,26.276-86.615,47.021-158.167,48.239c-63.577,0.662-170.087-24.952-273.1-49.714
	c-118.431-28.512-230.297-55.396-310.918-54.021c-0.153,0.003-2.045,0.036-2.233,0.037
	C307.699,120.242,234.798,208.784,203.667,246.615c-93.171,113.257-83.26,1637.707-72.855,2055.363
	c6.778,271.189,16.166,1692.523,104.858,1610.138C2016.958,2257.443,2026.338,2227.125,2525.857,1687.298z"/>
<path fill="#D2BC99" d="M2938.305,349.871c-205.333-1.284-458.588,149.03-674.005,151.323
	c-167.06,1.735-500.088-162.695-664.229-158.793c-138.596,3.295-454.15-32.531-582.56-24.095
	c-87.515,5.783-230.175,69.521-312.396,77.122c-76.198,7.143-442.649,7.977-513.78,16.316
	c-14.136,5.369,70.091-50.422-19.707,60.691c14.17-148.189,57.613-239.438,88.556-277.084
	c67.616-82.123,485.688-65.025,1370.867-86.034c164.143-3.903,515.367,123.229,682.417,121.447
	c215.423-2.252,246.38-132.784,451.712-131.541c778.023,4.78,990.766,9.408,1043.104,65.396
	c29.957,32.051-118.569,86.275-94.366,243.696C3413.354,199.349,3525.652,353.474,2938.305,349.871z"/>
<path fill="#40190B" d="M254.895,3973.678c99.852,2.119,291.799-218.305,792.893-708.229
	c303.008-296.252,650.325-666.197,979.995-1007.263l0.031-0.028l-126.103-121.943l126.132,121.912
	c129.709-134.203,257.714-262.412,371.915-389.238c313.745-348.385,770.099-775.186,1019.83-1053.302
	c317.673-353.777,452.04-541.114,438.913-656.937l-0.874-6.783c-1.236-35.022-30.271-63.001-30.271-63.001
	c-53.566-44.02-289.588-83.837-1110.202-88.852c-4.354-0.039-8.698,0.007-12.899,0.077c-119.58,2.037-195.553,43.29-250.99,73.361
	c-45.086,24.522-69.9,37.995-122.502,38.927l-1.931,0.058c-51.551,0.577-157.901-24.869-251.725-47.438
	C1953.742,35.32,1837.209,7.574,1746.752,9.114c-0.337,0.007-2.382,0.04-2.761,0.046
	C270.428,44.139,197.265,132.753,143.861,197.662c-35.876,43.584-114.017,1161.863-90.491,2106.24
	c5.764,231.844,44.179,1225.699,61.343,1405.17c30.233,316.236,26.633,265.057,119.902,265.588
	C260.037,3973.875,254.895,3973.678,254.895,3973.678z M3665.744,224.97c-91.476,241.212-869.956,933.036-1400.781,1522.479
	c-116.628,129.538-239.021,260.185-363.311,388.778C1207.79,2854.1,393.425,3755.686,277.126,3753.973
	c-87.248-89.869-121.344-3295.273,13.19-3458.789c57.743-70.131,701.452-113.535,1457.355-132.059
	c0.567-0.008,1.138-0.019,1.704-0.029c140.902-2.398,438.973,105.443,581.066,103.936c0.981-0.017,1.974,0.201,2.957,0.185
	c178.002-3.076,207.325-109.411,373.496-112.243c3.021-0.05,6.162-0.104,9.299-0.083
	C3212.865,157.941,3534.737,188.65,3665.744,224.97z"/>
<path fill="#7C5B28" d="M634.458,668.344c-4.628,97.424-97.501,124.59-186.43,130.196c-76.605,4.856-135.452-13.729-137.184-107.139
	c-2.14-116.699,77.138-118.362,160.334-115.918C544.191,575.759,639.176,569.939,634.458,668.344z"/>
<path fill="#7D5C28" d="M907.821,845.868c-0.775,78.508-39.237,129.464-117.072,139.692
	c-70.259,9.262-111.142-37.843-115.586-99.127c-5.021-70.593,37.892-114.975,105.146-119.83
	C845.833,766.09,908.645,758.074,907.821,845.868z"/>
<path fill="#CFBC9E" d="M1508.716,1508.859c0.031,167.603,0.091,335.167-0.138,502.762c0,11.316,4.928,26.91-5,32.848
	c-13.311,7.992-22.921-7.812-32.411-14.887c-222.819-166.639-444.972-334.249-668.215-500.331
	c-26.789-19.943-22.528-29.766,0.862-47.233c222.062-165.749,443.463-332.324,665.391-498.219
	c9.396-7.009,18.766-22.988,32.636-13.982c11.817,7.668,6.708,23.791,6.737,36.255
	C1508.792,1173.68,1508.716,1341.271,1508.716,1508.859z"/>
</svg>
