<?xml version="1.0" encoding="utf-8"?>
<!-- Generator: Adobe Illustrator 16.0.0, SVG Export Plug-In . SVG Version: 6.00 Build 0)  -->
<!DOCTYPE svg PUBLIC "-//W3C//DTD SVG 1.1//EN" "http://www.w3.org/Graphics/SVG/1.1/DTD/svg11.dtd">
<svg version="1.1" id="Ebene_1" xmlns="http://www.w3.org/2000/svg" xmlns:xlink="http://www.w3.org/1999/xlink" x="0px" y="0px"
	 width="260px" height="484px" viewBox="0 0 260 484" enable-background="new 0 0 260 484" xml:space="preserve">
<g id="Dzwivd_1_">
	<g>
		<path fill="#492014" d="M112.954,85.368c3.931,4.073,8.482,10.049,14.232,14.464c9.691,7.44,17.398,16.792,26.082,25.178
			c9.932,9.591,20.039,19.235,28.445,30.112c9.986,12.927,22.725,23.248,32.438,36.251c6.654,8.912,15.08,16.27,21.512,25.233
			c3.885,5.416,8.344,10.209,12.631,15.209c2.887,3.365,5.162,7.258,7.424,10.93c3.174,5.151-0.197,10.488-3.039,15.082
			c-9.006,14.578-20.914,26.813-31.875,39.863c-10.721,12.768-23.6,23.311-34.168,36.063c-6.608,7.978-14.011,15.12-21.385,22.312
			c-6.947,6.776-15.796,10.714-23.982,15.677c-7.248,4.395-14.707,8.687-20.318,15.416c-2.987,3.586-3.255,8.162-5.162,12.138
			c-1.793,3.737-3.095,7.631-6.173,10.6c-16.418,15.836-32.42,32.13-49.714,47.022c-7.56,6.509-15.673,12.453-23.962,18.017
			c-7.345,4.933-16.285,0.629-18.777-8.651c-3.128-11.648-4.257-23.557-5.3-35.592c-3.473-40.136-0.749-80.258-0.713-120.38
			c0.017-20.358-0.546-40.708-0.671-61.063c-0.119-19.422,0.533-38.848,0.083-58.246c-0.831-35.765,0.088-71.497,0.679-107.24
			c0.233-14.165,0.242-28.35,1.103-42.48c0.442-7.279,1.04-14.605,2.232-21.892c0.97-5.933,4.74-9.086,8.581-12.356
			c2.454-2.09,5.21,0.178,7.077,1.773c8.665,7.397,16.983,15.25,25.595,22.641c11.863,10.183,21.917,22.158,33.753,32.186
			C97.319,70.189,104.326,77.392,112.954,85.368z M225.659,225.572c-4.215-5.018-8.188-10.308-12.379-15.247
			c-16.086-18.942-34.168-36.055-50.414-54.958c-13.547-15.758-28.268-30.639-44.158-44.401
			C98.81,93.732,82.826,72.372,62.306,55.548c-9.52-7.805-17.353-17.635-27.412-24.996c-3.385-2.476-5.193-2.076-6.079,2.255
			c-2.379,11.628-2.278,23.48-2.252,35.229c0.06,27.357-1.038,54.696-0.035,82.08c0.837,22.846-0.469,45.755,0.444,68.646
			c0.523,13.133-0.201,26.285,0.125,39.454c0.501,20.392,1.365,40.782,1.034,61.205c-0.602,37.196-1.938,74.397-0.534,111.603
			c0.146,3.875,1.09,7.723,1.665,11.583c-1.918,3.362,0.808,6.312,0.889,9.529c0.107,4.179,2.95,5.604,6.188,3.155
			c3.387-2.562,7.32-4.776,10.201-7.483c7.847-7.37,16.866-13.235,24.695-20.534c8.285-7.729,16.309-15.736,24.605-23.453
			c3.711-3.449,6.11-7.34,7.688-12.25c2.272-7.061,4.327-14.658,10.75-19.32c3.96-2.875,7.917-5.922,12.062-8.346
			c2.631-1.541,5.113-3.441,7.854-4.856c8.228-4.246,16.229-8.793,23.338-14.884c9.381-8.037,15.942-18.582,24.892-27.045
			c7.521-7.11,14.703-14.611,21.562-22.517c10.539-12.146,21.289-24.104,31.404-36.639c5.211-6.456,6.557-9.97,2.232-16.255
			C233.847,236.219,231.089,229.865,225.659,225.572z"/>
		<path fill="#AC772B" d="M29.26,442.605c-0.574-3.861-1.519-7.707-1.665-11.583c-1.404-37.204-0.068-74.405,0.535-111.603
			c0.331-20.422-0.533-40.814-1.034-61.204c-0.324-13.17,0.399-26.322-0.124-39.455c-0.914-22.89,0.393-45.8-0.444-68.646
			c-1.002-27.385,0.094-54.722,0.035-82.08c-0.026-11.747-0.127-23.6,2.251-35.228c0.886-4.332,2.694-4.732,6.079-2.255
			c10.06,7.361,17.894,17.19,27.413,24.996c20.52,16.825,36.503,38.185,56.4,55.418c15.891,13.762,30.613,28.643,44.16,44.402
			c16.244,18.9,34.328,36.015,50.412,54.957c4.193,4.939,8.168,10.229,12.381,15.247c0.088,0.649,0.119,1.315,0.275,1.95
			c1.256,5.129,3.334,10.67,1.164,15.495c-2.814,6.259-5.988,12.5-11.434,17.363c-8.57,7.653-16.637,15.87-24.884,23.886
			c-1.054,1.023-2.127,2.145-2.802,3.425c-4.391,8.329-8.983,16.462-15.934,23.065c-2.466,2.342-5.869,2.453-8.363,4.982
			c-9.193,9.33-18.525,18.407-30.543,24.508c-7.021,3.565-14.538,6.109-21.196,10.582c-4.53,3.045-9.876,4.734-13.913,8.838
			c-2.713,2.754-4.331,6.068-6.527,9.054c-3.472,4.718-6.662,9.533-9.064,14.864c-2.202,4.884-4.374,9.885-8.555,13.384
			c-10.582,8.849-18.561,20.095-28.022,29.969c-0.663,0.688-1.127,1.617-1.527,2.503c-2.708,6.014-8.354,9.273-12.813,13.635
			C31.213,443.375,30.034,442.781,29.26,442.605z M91.741,250.639c-0.01,0.01-0.02,0.02-0.03,0.029
			c9.476,9.818,18.911,19.674,28.469,29.41c1.374,1.4,2.338,4.152,5.013,3.213c2.626-0.926,2.466-3.627,2.827-5.883
			c2.425-15.158,4.838-30.317,7.287-45.472c1.151-7.124,2.381-14.233,3.554-21.353c0.467-2.831-0.649-5.852-3.394-5.33
			c-3.432,0.655-6.84,0.607-10.233,1.062c-11.954,1.604-23.915,3.17-35.868,4.782c-8.563,1.155-17.158,2.143-25.666,3.622
			c-4.853,0.844-4.948,1.699-1.415,5.376C72.078,230.3,81.918,240.462,91.741,250.639z M211.95,225.579
			c-4.639-4.807-8.709-5.239-10.51-1.276c-1.533,3.381-2.865,6.993-1.336,10.888c1.025,2.61,2.521,4.112,5.514,4.872
			c6.264,1.587,6.551-4.219,8.77-6.989C216.806,230.05,213.851,227.311,211.95,225.579z"/>
		<path fill="#9D5F26" d="M29.26,442.605c0.774,0.176,1.953,0.77,2.261,0.469c4.459-4.358,10.105-7.621,12.813-13.633
			c0.399-0.888,0.865-1.814,1.527-2.505c9.462-9.874,17.44-21.118,28.023-29.969c4.182-3.497,6.353-8.5,8.554-13.384
			c2.403-5.329,5.592-10.146,9.064-14.864c2.196-2.983,3.815-6.302,6.527-9.052c4.039-4.104,9.385-5.795,13.914-8.838
			c6.659-4.475,14.176-7.019,21.196-10.582c12.018-6.103,21.349-15.18,30.541-24.51c2.496-2.529,5.897-2.641,8.365-4.982
			c6.95-6.604,11.543-14.735,15.934-23.062c0.675-1.281,1.746-2.404,2.801-3.427c8.248-8.017,16.314-16.233,24.883-23.886
			c5.447-4.862,8.619-11.104,11.436-17.363c2.168-4.824,0.09-10.366-1.166-15.495c-0.154-0.634-0.186-1.3-0.275-1.95
			c5.43,4.292,8.189,10.648,11.963,16.136c4.324,6.287,2.979,9.8-2.232,16.256c-10.113,12.533-20.865,24.494-31.404,36.64
			c-6.859,7.903-14.042,15.404-21.561,22.517c-8.949,8.463-15.51,19.004-24.891,27.045c-7.109,6.09-15.111,10.637-23.339,14.883
			c-2.742,1.417-5.224,3.316-7.854,4.857c-4.146,2.424-8.102,5.471-12.063,8.346c-6.422,4.66-8.478,12.262-10.75,19.322
			c-1.578,4.907-3.977,8.797-7.688,12.248c-8.297,7.717-16.32,15.726-24.606,23.452c-7.828,7.302-16.848,13.166-24.695,20.536
			c-2.88,2.707-6.814,4.919-10.202,7.48c-3.238,2.449-6.081,1.023-6.188-3.152C30.069,448.916,27.342,445.968,29.26,442.605z"/>
		<path fill="#8F6235" d="M91.741,250.639c-9.822-10.177-19.662-20.339-29.457-30.541c-3.532-3.678-3.437-4.532,1.416-5.376
			c8.507-1.479,17.103-2.468,25.666-3.622c11.953-1.611,23.913-3.179,35.868-4.782c3.394-0.455,6.802-0.407,10.233-1.062
			c2.742-0.523,3.859,2.499,3.393,5.33c-1.172,7.12-2.402,14.228-3.555,21.352c-2.447,15.155-4.86,30.314-7.285,45.473
			c-0.363,2.254-0.201,4.957-2.827,5.883c-2.675,0.939-3.64-1.813-5.014-3.213c-9.557-9.736-18.993-19.594-28.469-29.412
			C91.72,250.658,91.73,250.648,91.741,250.639z"/>
		<path fill="#875E25" d="M211.95,225.579c1.898,1.731,4.855,4.47,2.438,7.494c-2.219,2.771-2.506,8.576-8.77,6.989
			c-2.994-0.76-4.488-2.262-5.514-4.872c-1.529-3.895-0.197-7.506,1.336-10.888C203.241,220.34,207.312,220.772,211.95,225.579z"/>
	</g>
</g>
</svg>
