<?xml version="1.0" encoding="utf-8"?>
<!-- Generator: Adobe Illustrator 16.0.0, SVG Export Plug-In . SVG Version: 6.00 Build 0)  -->
<!DOCTYPE svg PUBLIC "-//W3C//DTD SVG 1.1//EN" "http://www.w3.org/Graphics/SVG/1.1/DTD/svg11.dtd">
<svg version="1.1" id="Ebene_1" xmlns="http://www.w3.org/2000/svg" xmlns:xlink="http://www.w3.org/1999/xlink" x="0px" y="0px"
	 width="119.984px" height="282.965px" viewBox="0 0 119.984 282.965" enable-background="new 0 0 119.984 282.965"
	 xml:space="preserve">
<g>
	<path fill="#40190B" d="M33.066,1.852c3.328,0.008,6.657,0.015,9.985,0.022c7.044-0.02,14.088-0.039,21.133-0.059
		c4.657,0.01,9.314,0.021,13.973,0.03c9.143,0.377,18.295,0.609,27.426,1.174c9.689,0.601,12.084,2.76,12.878,12.2
		c1.284,15.275,2.194,30.691,0.894,45.905c-2.519,29.452-0.554,58.888-1.161,88.317c-0.274,13.322,0.246,26.66,0.026,39.984
		c-0.397,24.137,1.671,48.243,0.715,72.38c-0.099,2.491-0.375,4.978-0.614,7.462c-0.971,10.079-2.694,11.773-12.873,12.652
		c-17.782,1.534-35.605,1.261-53.423,1.131c-13.979-0.103-27.95-0.414-41.874-1.943c-4.819-0.53-7.438-2.299-7.611-7.694
		c-0.763-23.631-1.428-47.26-1.427-70.903c0.002-1.164-0.086-2.326-0.132-3.49c0.004-9.326,0.007-18.654,0.012-27.981
		C0.97,135.996,0.949,100.953,0.929,65.912c-0.005-3.658-0.011-7.315-0.016-10.972c2.691-6.74-0.657-13.535,0.235-20.383
		c0.899-6.896,0.429-13.958,0.893-20.925C2.514,6.508,6.433,2.894,13.619,2.555C20.098,2.249,26.584,2.081,33.066,1.852z"/>
	<path fill="#A57A35" d="M112.995,47.84c-0.13,17.272-1.303,34.511-0.991,51.809c0.451,25.14-0.278,50.308,0.464,75.437
		c0.718,24.302,0.482,48.586,0.497,72.879c-4.305,3.961-7.188,8.905-9.728,14.094c-5.717,4.231-11.803,5.066-18.207,1.76
		c-2.951-1.523-5.834-3.202-8.516-5.191c-3.843-3.908-5.915-9.124-9.814-13.049c-2.87-2.889-5.876-4.673-10.042-4.329
		c-2.302,0.188-4.627-0.022-6.941,0.123c-7.212,0.456-13.634,2.38-17.383,9.309c-2.094,1.351-4.428,1.645-6.847,1.572
		c-2.652-0.044-4.979-1.08-7.222-2.377c-1.42-0.93-2.575-2.16-3.764-3.349c-1.6-3.098-3.608-5.745-7.259-6.592
		C7.17,198.15,7.077,156.366,7.031,114.582C7.01,96.27,7.169,77.956,7.059,59.645c-0.029-5.014,5.688-9.948,0.233-15.019
		c1.502-9.517-0.787-19.114,0.609-28.632C9.574,17.2,9.22,18.752,8.974,20.08c0.807-2.197,2.547-4.078,4.983-5.289
		c2.674-1.33,5.188-0.392,7.709,0.54c8.732,3.225,17.617,3.291,26.46,0.755c9.229-2.645,18.538-3.648,28.062-2.444
		c6.359,0.805,11.845,3.16,15.399,8.881c1.56,2.511,3.989,3.945,6.633,5.079c3.366,1.443,6.129,3.655,7.008,7.301
		C106.479,40.083,108.792,44.495,112.995,47.84z"/>
	<path fill="#96602B" d="M7.244,239.936c5.062-1.244,6.773,1.933,7.848,5.95c0.235,1.882,1.745,2.786,2.993,3.895
		c3.146,2.038,6.621,2.521,10.265,2.188c1.694,0.171,2.732-0.897,3.754-1.997c2.897-9.007,10.866-8.766,18.089-10.011
		c11.045-1.901,18.396,2.812,23.224,12.478c0.951,1.904,2.42,3.551,3.648,5.315c5.516,5.962,11.823,9.629,20.363,7.409
		c2.524-0.656,4.582-1.663,5.652-4.159c1.473-5.728,4.219-10.489,9.883-13.038c0.201,7.08,0.38,14.157-1.001,21.162
		c-1.499,2.839-4.342,3.479-7.068,4.16c-10.254,2.566-20.713,2.988-31.203,2.536c-13.626-0.587-27.238-0.332-40.866-0.132
		c-6.593,0.099-13.263-0.512-19.68-2.397c-2.41-0.709-4.688-1.781-5.92-4.228C7.232,259.355,7.239,249.646,7.244,239.936z"/>
	<path fill="#D2BC99" d="M112.995,47.84c-5.049-0.915-7.038-4.562-7.905-9.065c-1.029-5.338-3.686-9.178-9.141-10.685
		c-2.202-0.608-3.929-1.999-4.986-3.918c-5.329-9.661-14.58-9.468-23.764-9.788c-12.048-0.42-23.124,6.238-35.35,4.637
		c-2.804-0.367-5.64-0.554-8.307-1.444c-9.609-3.209-10.617-2.904-15.26,5.431c-0.132-2.423-0.257-4.719-0.382-7.014
		c0.564-6.465,1.182-7.077,7.477-7.369c29.604-1.374,59.206-1.373,88.798,0.333c7.421,0.427,7.661,0.47,8.29,8.029
		C113.318,27.246,113.871,37.538,112.995,47.84z"/>
	<path fill="#F7A619" d="M7.226,269.066c8.733,4.738,18.102,5.485,27.869,5.184c13.096-0.407,26.196-0.405,39.327,0.375
		c12.747,0.757,25.535-0.23,37.542-5.499c0.215,5.806-0.343,6.271-6.892,6.834c-21.932,1.884-43.898,1.135-65.854,0.896
		c-8.963-0.098-17.917-0.965-26.878-1.393C8.102,275.261,6.343,273.27,7.226,269.066z"/>
	<path fill="#F4A41A" d="M103.082,261.003c0.351,2.159-0.743,3.332-2.585,4.269c-7.49,3.811-18.952,0.867-23.617-6.194
		c-0.183-0.277,0.114-0.873,0.187-1.321c2.122,1.254,4.291,2.438,6.359,3.778C90.117,265.864,96.646,265.469,103.082,261.003z"/>
	<path fill="#7C5B28" d="M83.038,55.981c2.616-0.081,5.109-0.033,5.048,3.637c-0.05,2.938-1.9,3.525-4.309,3.376
		c-2.797-0.172-5.719-1.021-5.869-4.085C77.755,55.815,80.742,55.993,83.038,55.981z"/>
	<path fill="#7D5C28" d="M78.127,46.005c2.115,0.149,3.467,1.543,3.312,3.763c-0.136,1.927-1.42,3.411-3.63,3.123
		c-2.448-0.318-3.66-1.918-3.688-4.387C74.091,45.743,76.066,45.992,78.127,46.005z"/>
	<path fill="#7E5C28" d="M26.05,43.353c0.018,1.992-0.786,2.687-2.165,2.569c-1.812-0.153-3.256-1.104-3.399-2.966
		c-0.101-1.306,0.624-2.844,2.209-2.754C24.776,40.32,25.689,41.958,26.05,43.353z"/>
	<path fill="#F2A31B" d="M29.057,252.886c-4.31,0.372-8.565,0.521-11.973-2.874c-0.205-0.986,0.133-1.424,1.169-1.152
		c2.386,0.428,4.312,2.302,6.871,2.185C26.118,252.333,28.704,250.227,29.057,252.886z"/>
	<path fill="#E3991E" d="M29.057,252.886c-1.311-0.614-2.623-1.229-3.934-1.843c2.417,0.227,4.688-0.496,6.981-1.072
		C31.981,251.876,31.028,252.913,29.057,252.886z"/>
	<path fill="#E89D1E" d="M18.252,248.859c-0.39,0.384-0.779,0.768-1.168,1.151c-1.07-1.179-3.917-1.5-1.992-4.126
		C16.146,246.877,17.199,247.867,18.252,248.859z"/>
	<path fill="#734921" d="M53.817,266.991c-0.56,1.768-1.721,2.813-3.544,2.887c-1.955,0.076-3.125-0.916-3.1-2.947
		c0.024-2.023,1.208-3.015,3.16-2.889C52.142,264.157,53.289,265.236,53.817,266.991z"/>
	<path fill="#724820" d="M44.919,266.734c-0.247,1.53-1.281,2.166-2.794,2.142c-1.155-0.021-1.87-0.587-1.913-1.81
		c-0.053-1.506,0.821-2.077,2.184-2.074C43.581,264.994,44.817,264.98,44.919,266.734z"/>
</g>
<g>
	<path fill="#CFBC9E" d="M35.74,141.609c-0.002,10.833-0.007,21.663,0.008,32.495c0,0.731-0.318,1.739,0.324,2.123
		c0.86,0.516,1.481-0.505,2.094-0.962c14.401-10.771,28.76-21.604,43.188-32.338c1.732-1.289,1.457-1.924-0.055-3.053
		c-14.352-10.713-28.662-21.479-43.006-32.201c-0.607-0.453-1.213-1.486-2.109-0.904c-0.764,0.496-0.434,1.538-0.436,2.343
		C35.734,119.945,35.74,130.777,35.74,141.609z"/>
</g>
<path fill="none" d="M178.291,144.294c0.222,0.222,0.441,0.443,0.664,0.665"/>
</svg>
