<?xml version="1.0" encoding="utf-8"?>
<!-- Generator: Adobe Illustrator 16.0.0, SVG Export Plug-In . SVG Version: 6.00 Build 0)  -->
<!DOCTYPE svg PUBLIC "-//W3C//DTD SVG 1.1//EN" "http://www.w3.org/Graphics/SVG/1.1/DTD/svg11.dtd">
<svg version="1.1" id="Ebene_1" xmlns="http://www.w3.org/2000/svg" xmlns:xlink="http://www.w3.org/1999/xlink" x="0px" y="0px"
	 width="119.985px" height="282.965px" viewBox="0 0 119.985 282.965" enable-background="new 0 0 119.985 282.965"
	 xml:space="preserve">
<g>
	<path fill-rule="evenodd" clip-rule="evenodd" fill="#9E8B85" d="M0.115,170.979c0-34.996,0-69.991,0-104.987
		c0.715-0.287,1.263-0.097,1.65,0.568c1.211,2.324,0.956,4.855,0.958,7.328c0.026,29.731,0.025,59.461,0,89.193
		c-0.002,2.473,0.257,5.005-0.949,7.334C1.384,171.079,0.83,171.267,0.115,170.979z"/>
	<path fill-rule="evenodd" clip-rule="evenodd" fill="#CEC5C2" d="M0.115,170.979c0.291,0.03,0.582,0.05,0.875,0.06
		c0.856,0.635,1.34,1.55,1.412,2.547c0.547,7.63,0.552,15.265-0.003,22.895c-0.073,0.996-0.558,1.911-1.42,2.541l-0.433,0.003
		l-0.43-0.048C0.115,189.644,0.115,180.311,0.115,170.979z"/>
	<path fill-rule="evenodd" clip-rule="evenodd" fill="#CFC5C2" d="M0.928,65.912l-0.414-0.037l-0.398,0.117
		c0-3.667,0-7.332,0-10.999c0.255-0.164,0.521-0.183,0.796-0.054C3.46,58.593,3.435,62.25,0.928,65.912z"/>
	<path fill-rule="evenodd" clip-rule="evenodd" fill="#40190B" d="M33.066,1.852c3.328,0.008,6.657,0.015,9.985,0.022
		c7.044-0.02,14.088-0.039,21.133-0.059c4.657,0.01,9.314,0.021,13.972,0.03c9.143,0.377,18.295,0.609,27.426,1.174
		c9.69,0.601,12.084,2.76,12.878,12.2c1.284,15.275,2.194,30.691,0.894,45.905c-2.519,29.452-0.554,58.888-1.161,88.318
		c-0.275,13.322,0.246,26.66,0.026,39.984c-0.398,24.137,1.671,48.243,0.715,72.38c-0.099,2.491-0.375,4.977-0.614,7.461
		c-0.971,10.08-2.695,11.774-12.874,12.653c-17.782,1.534-35.605,1.261-53.422,1.131c-13.98-0.103-27.951-0.414-41.874-1.944
		c-4.82-0.53-7.438-2.298-7.612-7.694c-0.762-23.631-1.427-47.26-1.426-70.903c0.001-1.164-0.086-2.326-0.132-3.49
		c0.004-9.327,0.007-18.655,0.011-27.982c-0.021-35.042-0.042-70.085-0.062-105.126c-0.005-3.658-0.011-7.315-0.016-10.972
		C3.605,48.2,0.256,41.405,1.149,34.557c0.899-6.896,0.428-13.958,0.892-20.925C2.514,6.508,6.433,2.894,13.619,2.555
		C20.098,2.249,26.584,2.081,33.066,1.852z"/>
	<path fill-rule="evenodd" clip-rule="evenodd" fill="#A57A35" d="M112.995,47.84c-0.13,17.272-1.302,34.511-0.991,51.809
		c0.451,25.14-0.278,50.308,0.464,75.437c0.718,24.302,0.482,48.586,0.497,72.879c-4.305,3.961-7.187,8.905-9.728,14.094
		c-5.716,4.231-11.802,5.066-18.207,1.759c-2.951-1.523-5.834-3.202-8.515-5.191c-3.843-3.908-5.915-9.124-9.815-13.049
		c-2.87-2.888-5.876-4.673-10.042-4.329c-2.301,0.189-4.627-0.023-6.941,0.123c-7.212,0.456-13.634,2.38-17.383,9.309
		c-2.094,1.35-4.428,1.644-6.847,1.572c-2.652-0.044-4.979-1.08-7.221-2.377c-1.42-0.93-2.575-2.16-3.764-3.349
		c-1.599-3.097-3.608-5.745-7.259-6.592C7.17,198.15,7.077,156.366,7.03,114.582C7.01,96.27,7.169,77.956,7.059,59.645
		c-0.03-5.014,5.688-9.948,0.233-15.019c1.502-9.517-0.787-19.114,0.61-28.632C9.574,17.2,9.22,18.752,8.974,20.08
		c0.806-2.197,2.547-4.078,4.983-5.289c2.674-1.33,5.188-0.392,7.709,0.54c8.733,3.225,17.617,3.291,26.46,0.755
		c9.229-2.645,18.538-3.648,28.063-2.444c6.359,0.805,11.844,3.16,15.399,8.881c1.56,2.511,3.989,3.945,6.633,5.079
		c3.366,1.443,6.129,3.655,7.008,7.301C106.479,40.083,108.792,44.495,112.995,47.84z"/>
	<path fill-rule="evenodd" clip-rule="evenodd" fill="#96602B" d="M7.244,239.935c5.063-1.243,6.774,1.933,7.848,5.951
		c0.235,1.881,1.745,2.786,2.993,3.894c3.146,2.038,6.621,2.521,10.265,2.188c1.694,0.171,2.732-0.898,3.754-1.997
		c2.897-9.007,10.866-8.766,18.089-10.011c11.044-1.901,18.396,2.812,23.223,12.477c0.951,1.905,2.42,3.551,3.649,5.316
		c5.515,5.962,11.823,9.629,20.363,7.409c2.524-0.656,4.582-1.663,5.652-4.159c1.473-5.728,4.219-10.489,9.883-13.038
		c0.201,7.08,0.38,14.157-1.001,21.162c-1.499,2.839-4.342,3.478-7.068,4.16c-10.254,2.567-20.713,2.988-31.203,2.536
		c-13.626-0.587-27.239-0.332-40.867-0.131c-6.592,0.098-13.262-0.512-19.679-2.398c-2.41-0.709-4.689-1.781-5.92-4.228
		C7.232,259.356,7.238,249.646,7.244,239.935z"/>
	<path fill-rule="evenodd" clip-rule="evenodd" fill="#D2BC99" d="M112.995,47.84c-5.049-0.915-7.038-4.563-7.905-9.065
		c-1.029-5.338-3.686-9.178-9.141-10.685c-2.202-0.608-3.928-1.999-4.986-3.918c-5.329-9.661-14.58-9.468-23.764-9.788
		c-12.047-0.42-23.124,6.238-35.349,4.637c-2.804-0.367-5.64-0.554-8.307-1.444c-9.609-3.209-10.617-2.904-15.26,5.431
		c-0.131-2.423-0.256-4.719-0.381-7.014c0.564-6.465,1.181-7.077,7.476-7.369c29.604-1.374,59.206-1.373,88.798,0.333
		c7.421,0.427,7.661,0.47,8.29,8.029C113.318,27.246,113.871,37.538,112.995,47.84z"/>
	<path fill-rule="evenodd" clip-rule="evenodd" fill="#F7A619" d="M7.226,269.066c8.733,4.739,18.101,5.486,27.869,5.184
		c13.096-0.407,26.196-0.405,39.327,0.375c12.747,0.757,25.535-0.23,37.542-5.499c0.215,5.806-0.343,6.271-6.892,6.834
		c-21.931,1.884-43.898,1.135-65.853,0.896c-8.963-0.098-17.917-0.965-26.878-1.393C8.102,275.261,6.343,273.269,7.226,269.066z"/>
	<path fill-rule="evenodd" clip-rule="evenodd" fill="#F4A41A" d="M103.082,261.003c0.351,2.159-0.743,3.332-2.585,4.269
		c-7.49,3.81-18.952,0.867-23.617-6.195c-0.183-0.277,0.114-0.873,0.187-1.321c2.122,1.254,4.291,2.438,6.359,3.778
		C90.117,265.864,96.646,265.469,103.082,261.003z"/>
	<path fill-rule="evenodd" clip-rule="evenodd" fill="#7C5B28" d="M83.038,55.981c2.616-0.081,5.11-0.033,5.048,3.637
		c-0.05,2.938-1.9,3.525-4.308,3.376c-2.797-0.172-5.719-1.021-5.87-4.085C77.755,55.815,80.742,55.993,83.038,55.981z"/>
	<path fill-rule="evenodd" clip-rule="evenodd" fill="#7D5C28" d="M78.127,46.005c2.115,0.149,3.467,1.543,3.312,3.763
		c-0.136,1.927-1.42,3.411-3.63,3.123c-2.448-0.318-3.66-1.918-3.688-4.387C74.091,45.743,76.066,45.992,78.127,46.005z"/>
	<path fill-rule="evenodd" clip-rule="evenodd" fill="#7E5C28" d="M26.05,43.353c0.018,1.992-0.786,2.687-2.165,2.569
		c-1.813-0.153-3.256-1.104-3.399-2.966c-0.101-1.306,0.624-2.844,2.209-2.754C24.776,40.32,25.689,41.958,26.05,43.353z"/>
	<path fill-rule="evenodd" clip-rule="evenodd" fill="#F2A31B" d="M29.057,252.886c-4.31,0.372-8.566,0.521-11.973-2.874
		c-0.205-0.987,0.133-1.424,1.169-1.153c2.386,0.428,4.312,2.302,6.871,2.185C26.118,252.333,28.704,250.226,29.057,252.886z"/>
	<path fill-rule="evenodd" clip-rule="evenodd" fill="#E3991E" d="M29.057,252.886c-1.311-0.615-2.623-1.229-3.934-1.843
		c2.417,0.227,4.688-0.496,6.982-1.072C31.981,251.876,31.028,252.913,29.057,252.886z"/>
	<path fill-rule="evenodd" clip-rule="evenodd" fill="#E89D1E" d="M18.252,248.859c-0.39,0.384-0.779,0.768-1.168,1.152
		c-1.07-1.179-3.917-1.5-1.992-4.126C16.146,246.877,17.199,247.867,18.252,248.859z"/>
	<path fill-rule="evenodd" clip-rule="evenodd" fill="#734921" d="M53.817,266.991c-0.56,1.768-1.721,2.814-3.544,2.887
		c-1.955,0.076-3.125-0.916-3.1-2.947c0.024-2.024,1.208-3.015,3.16-2.889C52.142,264.157,53.289,265.236,53.817,266.991z"/>
	<path fill-rule="evenodd" clip-rule="evenodd" fill="#724820" d="M44.919,266.735c-0.247,1.53-1.281,2.166-2.794,2.141
		c-1.155-0.02-1.87-0.587-1.913-1.81c-0.053-1.505,0.821-2.077,2.184-2.074C43.581,264.994,44.817,264.981,44.919,266.735z"/>
</g>
<g>
	<path fill-rule="evenodd" clip-rule="evenodd" fill="#8F6235" d="M82.477,141.609c0.002,10.832,0.006,21.662-0.008,32.494
		c0,0.732,0.318,1.74-0.324,2.123c-0.861,0.516-1.482-0.504-2.094-0.961c-14.402-10.771-28.76-21.604-43.189-32.338
		c-1.732-1.289-1.457-1.924,0.055-3.053c14.352-10.713,28.662-21.479,43.006-32.201c0.607-0.453,1.213-1.486,2.109-0.904
		c0.764,0.496,0.434,1.538,0.436,2.343C82.482,119.945,82.477,130.777,82.477,141.609z"/>
</g>
<path fill="none" d="M178.291,144.294c0.222,0.222,0.442,0.443,0.664,0.665"/>
</svg>
