<?xml version="1.0" encoding="utf-8"?>
<!-- Generator: Adobe Illustrator 16.0.0, SVG Export Plug-In . SVG Version: 6.00 Build 0)  -->
<!DOCTYPE svg PUBLIC "-//W3C//DTD SVG 1.1//EN" "http://www.w3.org/Graphics/SVG/1.1/DTD/svg11.dtd">
<svg version="1.1" xmlns="http://www.w3.org/2000/svg" xmlns:xlink="http://www.w3.org/1999/xlink" x="0px" y="0px" width="260px"
	 height="484px" viewBox="0 0 260 484" enable-background="new 0 0 260 484" xml:space="preserve">
<g id="Ebene_2_1_">
	<g id="Ebene_2">
		<path fill="#74452A" d="M16.478,189.562c0.648-24.249-4.697-169.396,14.089-170.252c3.701-0.172-4.898-17.69,72.795,57.236
			l0.694,0.685c6.226,6.29,8.029,12.116,9.616,17.255c1.432,4.626,2.562,8.28,6.989,12.751c3.96,3.948,12.236,8.879,20.238,13.648
			c9.204,5.481,17.896,10.661,22.883,15.7c0.01,0.01,0.126,0.128,0.138,0.139c88.393,90.493,87.539,100.542,87.174,104.836
			C250,254.41,155.732,349.724,129.421,375.364c-17.085,16.648-104.987,105.505-105.508,94.872
			C13.476,256.699,14.747,254.215,16.478,189.562z"/>
		<path opacity="0.5" fill="#F9D00A" enable-background="new    " d="M72.682,80.073c12.999,12.532,19.701,37.547,33.115,50.924
			c10.406,10.371,41.46,20.482,51.548,30.811c8.52,8.721,30.576,25.852,38.137,34.27c5.151,5.74,10.214,18.515,14.919,24.043
			c4.356,5.13,27.363,27.693,31.326,32.588c15.989,19.767-1.312-7.478-2.488,5.029c8.212-10.195,11.082-18.605,11.449-22.874
			c0.791-9.321-26.566-33.927-80.974-89.625c-10.088-10.329-39.997-23.905-50.399-34.278c-13.417-13.375-7.346-23.489-20.342-36.024
			c-49.249-47.493-62.919-60.27-69.652-59.962c-3.854,0.176,2.161,12.712-9.033,21.131C52.038,41.42,35.503,44.219,72.682,80.073z"
			/>
		<path fill="#40190B" d="M20.138,474.237c5.901,5.696,2.531,8.694,23.859-9.347c12.105-10.237,75.573-70.414,90.178-84.647
			c59.492-57.978,123.271-133.144,123.689-138.089c0.628-7.364,1.468-17.435-89.104-110.155c-0.023-0.024-0.15-0.151-0.171-0.172
			c-5.599-5.653-14.635-11.066-24.221-16.777c-7.289-4.343-15.544-9.274-18.753-12.479l-0.117-0.122
			c-3.253-3.29-3.987-5.661-5.317-9.974c-1.642-5.299-3.887-12.562-11.286-20.035c-0.259-0.262-0.531-0.532-0.807-0.797
			C56.146,21.549,38.848,9.557,32.774,9.036c0,0-3.545-0.023-5.775,2.104l-0.471,0.374c-7.941,6.481-10.995,26.523-12.738,68.298
			c-1.371,32.839,1.126,87.729-0.533,128.922c-0.605,14.995-0.427,30.925-0.509,47.34l15.425,0.076l-15.425-0.072v0.002
			c-0.208,41.712-1.08,86.324-0.211,123.579c1.435,61.609-0.027,87.27,6.385,93.271C18.922,472.93,18.587,472.626,20.138,474.237z
			 M98.635,81.448c0.199,0.191,0.393,0.387,0.581,0.576c10.281,10.385,5.594,18.878,16.606,30.006
			c0.06,0.062,0.136,0.109,0.197,0.17c8.849,8.824,34.228,20.348,42.947,29.154c0.036,0.036,0.07,0.071,0.105,0.107
			c46.425,47.599,84.262,89.873,83.587,97.833C241.08,257.848,42.029,457.444,31.02,457.74
			c-7.423-7.038-3.281-113.792-2.842-201.586c0.078-15.726,0.402-31.466,1.021-46.78c2.809-69.697-3.678-161.05,5.384-181.846
			C45.057,33.29,67.196,51.13,98.635,81.448z"/>
		<path fill="#251B14" d="M214.061,245.82c5.385,4.958,10.271,9.932,2.966,17.144c-5.845,5.771-10.689,3.325-15.213-1.685
			c-5.251-5.815-9.425-13.23-3.731-19.646C203.83,235.152,209.45,241.353,214.061,245.82z"/>
		<path fill="#251B14" d="M182.869,238.857c3.933,4.437,3.906,9.866-0.746,13.999c-4.043,3.582-9.51,4.034-13.36-0.862
			c-4.27-5.426-3.561-10.996,1.214-15.982C175.317,230.438,178.777,234.8,182.869,238.857z"/>
	</g>
	<path fill="#B9872C" d="M-125.813,239.742c-0.713,0.874-2.097,1.826-1.586,2.832c0.669,1.312,2.601,0.963,3.518,0.443
		c1.971-1.117,3.994-1.238,6.102-1.324c1.682,1.615,3.361,3.23,5.041,4.852c0.395,0.441,0.787,0.881,1.183,1.322
		c-5.575,5.869-11.135,11.752-16.741,17.594c-0.968,1.01-1.791,2.363-3.718,1.441c-4.845-2.312-5.659-5.924-2.055-9.727
		c0.795-0.84,1.567-1.697,2.351-2.551c0.107-2.445-1.149-1.436-2.227-0.881c-0.875-0.838-1.749-1.68-2.624-2.516
		c1.025-1.699,0.312-3.234-0.207-5.695c-3.178,3.283-5.774,5.971-8.37,8.65c-1.087-1.018-2.131-2.086-3.269-3.045
		c-1.847-1.551-2.239-2.973-0.315-4.896c5.032-5.035,9.974-10.16,14.852-15.343c1.792-1.903,2.972-1.411,4.978-0.052
		C-125.45,233.201-127.026,236.871-125.813,239.742z"/>
</g>
<g id="Ebene_1">
	<g id="FKZqIg_1_">
		<g>
			<path fill="#D4BB9A" d="M131.742,251.742c-0.713,0.874-2.097,1.826-1.586,2.832c0.669,1.312,2.601,0.963,3.518,0.443
				c1.971-1.117,3.994-1.238,6.102-1.324c1.682,1.615,3.361,3.23,5.041,4.852c0.395,0.441,0.787,0.881,1.183,1.322
				c-5.575,5.869-11.135,11.752-16.741,17.594c-0.968,1.01-1.791,2.363-3.718,1.441c-4.845-2.312-5.659-5.924-2.055-9.727
				c0.795-0.84,4.567-4.697,5.351-5.551c0.107-2.445-4.149,1.564-5.227,2.119c-0.875-0.838-1.749-1.68-2.624-2.516
				c1.025-1.699,0.312-3.234-0.207-5.695c-3.178,3.283-5.774,5.971-8.37,8.65c-1.087-1.018-2.131-2.086-3.269-3.045
				c-1.847-1.551-2.239-2.973-0.315-4.896c5.032-5.035,9.974-10.16,14.852-15.343c1.792-1.903,2.972-1.411,4.978-0.052
				C132.105,245.201,130.529,248.871,131.742,251.742z"/>
			<path fill="#D4BB9A" d="M84.542,242.167c-0.171-0.248-0.01-1.062-0.208-1.292c0.794-0.935,1.208-1.583,2.298-2.543
				c0.609-0.747,1.223-1.492,1.834-2.239c5.366-5.449,10.732-10.896,16.101-16.346c0,0-0.016-0.013-0.016-0.014
				c7.107,6.8,7.107,6.8,0.125,14.026c-1.958,2.029-3.945,4.034-5.859,6.107c-0.855,0.93-2.116,1.831-1.132,3.396
				c0.862,1.371,2.255,1.045,3.568,1.145c1.808,0.131,2.641-1.193,3.659-2.22c3.744-3.767,7.446-7.571,11.164-11.361
				c0,0-0.021,0.006-0.021,0.005c0.59,0.575,1.117,1.243,1.784,1.71c3.547,2.493,3.77,4.906,0.247,7.739
				c-2.043,1.643-3.701,3.76-5.547,5.646c-4.375,4.479-7.942,10.633-15.908,7.715l0.018,0.034c-2.836-2.768-5.672-5.532-8.507-8.301
				C86.209,243.5,85.699,243.105,84.542,242.167z"/>
			<path fill="#D4BB9A" d="M81.429,234.816c-0.19,0.165-0.381,0.332-0.572,0.501c-1.023,0.725-0.773,2.1-4.35-1.212l0.04,0.03
				c-1.686-1.606-3.43-3.161-5.047-4.835c-4.25-4.401-6.969-10.867-0.3-15.513c1.341-0.934,2.35-2.345,3.512-3.537l-0.021,0.001
				c2.679,2.678,7.386,4.686,2.595,9.596c-0.797,0.816-0.879,3.234,0.793,4.429c1.774,1.268,2.708-0.327,3.679-1.311
				c4.047-4.099,8.034-8.258,12.043-12.394c0.214-0.157,0.422-0.319,0.628-0.489c7.202,6.51,5.891,5.201,0.264,11.178
				C90.36,225.861,85.856,230.303,81.429,234.816z"/>
			<path fill="#D4BB9A" d="M136.161,290.434c-0.299-0.395-1.623-0.773-1.898-1.189c-6.554-5.911-3.766-7.188,2.622-13.793
				c2.775-2.869,5.592-5.701,8.315-8.619c2.733-2.924,5.526-2.936,8.046,0.021c3.137,3.689,7.859,5.863,9.273,11.264
				c1.721,6.562-3.769,8.604-6.783,12.082c-2.428,2.801-6.195,2.58-8.877,0.488c-1.594-1.242-2.756-2.702-4.614-3.775
				c-3.294-1.908-3.961,2.439-6.109,3.527L136.161,290.434z M152.757,281.197c-0.01-1.639,0.899-3.379-0.901-4.574
				c-1.877-1.244-2.638,0.496-3.621,1.457c-1.192,1.164-1.127,2.406,0.332,3.264C149.926,282.145,151.359,281.854,152.757,281.197z"
				/>
		</g>
	</g>
</g>
</svg>
