<?xml version="1.0" encoding="utf-8"?>
<!-- Generator: Adobe Illustrator 16.0.0, SVG Export Plug-In . SVG Version: 6.00 Build 0)  -->
<!DOCTYPE svg PUBLIC "-//W3C//DTD SVG 1.1//EN" "http://www.w3.org/Graphics/SVG/1.1/DTD/svg11.dtd">
<svg version="1.1" id="Ebene_1" xmlns="http://www.w3.org/2000/svg" xmlns:xlink="http://www.w3.org/1999/xlink" x="0px" y="0px"
	 width="252.171px" height="484px" viewBox="0 0 252.171 484" enable-background="new 0 0 252.171 484" xml:space="preserve">
<g id="tjubBX_1_">
	<g>
		<path fill="#D2B99A" d="M174.146,230.984c9.625,10.138,19.268,20.261,28.84,30.45c1.022,1.09,3.091,1.948,2.004,4.045
			c-0.934,1.797-2.629,2.037-4.596,2.263c-16.037,1.815-32.029,4.03-48.084,5.653c-6.976,0.705-13.94,1.407-20.896,2.293
			c-3.762,0.479-5.775-0.707-4.981-5.121c2.051-11.409,3.841-22.864,5.751-34.299c1.422-8.52,3.041-17.01,4.222-25.562
			c0.472-3.405,1.653-6.618,1.919-10.103c0.229-2.996,2.66-3.584,5.148-1.754c1.059,0.778,1.914,1.841,2.83,2.806
			C155.588,211.426,164.863,221.208,174.146,230.984z"/>
		<path fill="#845C25" d="M44.606,249.596"/>
	</g>
</g>
</svg>
