<?xml version="1.0" encoding="utf-8"?>
<!-- Generator: Adobe Illustrator 16.0.0, SVG Export Plug-In . SVG Version: 6.00 Build 0)  -->
<!DOCTYPE svg PUBLIC "-//W3C//DTD SVG 1.1//EN" "http://www.w3.org/Graphics/SVG/1.1/DTD/svg11.dtd">
<svg version="1.1" id="Ebene_1" xmlns="http://www.w3.org/2000/svg" xmlns:xlink="http://www.w3.org/1999/xlink" x="0px" y="0px"
	 width="260px" height="484px" viewBox="0 0 260 484" enable-background="new 0 0 260 484" xml:space="preserve">
<g id="soxAgD_1_">
	<g>
		<path fill="#491F13" d="M176.432,436.788c-9.882-9.767-16.221-16.666-23.24-22.784c-6.553-5.716-9.514-13.229-11.854-20.989
			c-2.324-7.703-8.487-11.838-14.333-15.543c-3.541-2.244-7.189-4.792-11.078-6.795c-14.602-7.52-25.357-19.857-36.574-31.52
			c-9.924-10.319-20.386-20.176-29.657-31.049c-8.2-9.617-17.254-18.492-24.603-28.915c-3.652-5.181-8.267-9.767-11.956-15.062
			c-3.049-4.379-6.083-8.914-7.556-13.862c-1.181-3.965-0.696-8.312,2.669-12.361c9.478-11.401,18.911-22.843,28.491-34.164
			c17.703-20.918,37.25-40.101,55.908-60.115c6.633-7.115,12.557-15.104,19.946-21.38c17.38-14.763,31.937-32.473,49.386-47.027
			c12.029-10.033,21.918-22.271,34.204-31.825c8.548-6.645,15.051-15.543,23.948-21.438c6.169-4.086,10.297-10.629,17.493-13.375
			c1.883-0.719,2.653-0.738,4.137,0.429c6.101,4.801,8.295,11.004,8.746,18.705c2.615,44.679,1.741,89.397,1.808,134.099
			c0.05,32.764-0.571,65.53-1.223,98.29c-0.263,13.232-0.259,26.49-0.867,39.692c-1.441,31.327,0.101,62.647-0.525,93.962
			c-0.389,19.446-1.565,38.846-4.114,58.131c-1.026,7.772-3.354,15.269-7.021,22.251c-2.596,4.942-11.077,5.876-16.411,1.971
			C204.655,463.292,188.196,449.271,176.432,436.788z M229.701,446.778c1.177-1.032,0.148-2.34,0.43-3.483
			c0.842-0.84,1.374-1.706,1.37-3.042c-0.028-9.071,0.741-18.127,1.025-27.169c1.215-38.626-1.693-77.282,0.86-115.933
			c0.748-11.318,0.379-22.708,1.125-34.083c1.244-18.986-0.513-38.019,1.039-57.095c1.461-17.946,0.097-36.05,1.084-54.125
			c1.309-23.962-0.888-48.034,1.167-72.042c0.747-8.725-0.512-17.445-1.367-26.158c-0.641-6.533,0.576-13.227-1.555-19.653
			c-0.388-1.175,0.583-2.989-1.136-3.468c-1.588-0.443-3.183-0.19-4.566,1.187c-4.193,4.168-8.978,7.666-13.499,11.405
			c-10.276,8.495-20.064,17.773-29.561,27.076c-39.993,39.186-78.825,79.554-118.488,119.083
			c-11.274,11.237-19.837,24.798-31.797,35.344c-2.844,2.953-6.645,5.209-7.178,9.847c-1.247,1.343-2.928,2.486-3.65,4.068
			c-1.672,3.659-5.467,6.705-3.218,11.636c2.278,4.993,5.625,9.318,8.77,13.644c7.958,10.946,17.469,20.656,26.037,31.148
			c9.13,11.179,20.047,20.769,29.489,31.777c8.226,9.592,16.733,19.191,27.859,26.027c6.67,4.099,13.369,8.193,20.031,12.315
			c10.215,6.321,19.72,12.8,22.655,25.729c1.522,6.7,5.416,12.378,10.609,17.333c14.654,13.991,28.613,28.736,44.855,40.968
			c3.683,2.772,7.721,5.047,11.216,8.14c1.264,1.117,3.926,2.527,4.893-0.255C229.323,453.778,231.058,450.442,229.701,446.778z"/>
		<path fill="#7C4328" d="M35.833,224.621c11.959-10.547,20.521-24.108,31.797-35.345c39.664-39.529,78.495-79.897,118.489-119.083
			c9.496-9.303,19.283-18.581,29.56-27.076c4.523-3.738,9.307-7.237,13.499-11.405c1.385-1.376,2.979-1.629,4.567-1.187
			c1.718,0.479,0.747,2.294,1.136,3.468c2.13,6.427,0.915,13.121,1.555,19.654c0.855,8.713,2.114,17.433,1.367,26.158
			c-2.056,24.009,0.142,48.081-1.167,72.042c-0.988,18.076,0.377,36.178-1.084,54.125c-1.554,19.076,0.205,38.109-1.04,57.096
			c-0.745,11.375-0.376,22.765-1.124,34.082c-2.554,38.65,0.354,77.308-0.861,115.934c-0.282,9.04-1.053,18.097-1.025,27.169
			c0.004,1.335-0.528,2.201-1.369,3.041c-0.239-0.222-0.474-0.448-0.707-0.679c0.491-5.395-7.616-15.21-12.639-15.194
			c-0.53,0-1.06,0.732-1.59,1.124c-1.115-1.225-2.628-2.27-3.277-3.705c-2.792-6.178-7.277-11.19-11.491-16.274
			c-3.839-4.635-8.025-9.045-12.661-13.071c-3.732-3.245-3.893-9.702-9.376-12.007c-0.795-0.335-0.588-1.806-0.262-2.798
			c2.675-7.217-0.806-15.011-7.721-17.386c-0.918-0.315-1.584-0.05-2.264,0.466c-0.473-0.468-0.944-0.936-1.416-1.402
			c1.51-4.262-1.021-8.99-5.641-9.733c-2.553-0.411-3.931-1.457-5.355-3.588c-2.074-3.102-4.885-5.711-7.593-8.77
			c-1.338,3.179,2.173,5.495,0.112,8.058c-4.152-1.598-8.136-4.613-11.947-5.516c-4.79-1.133-5.977-6.448-11.337-6.672
			c-3.476-0.146-7.755-2.71-9.783-6.873c0.447-0.973,2.161,0.929,2.261-0.586c0.109-1.691-1.419-2.908-2.709-3.15
			c-4.607-0.862-6.754-4.296-9.129-7.705c-1.036-1.488-2.132-4.013-4.597-2.566c-2.938,1.725-4.457-0.537-5.16-2.12
			c-2.672-5.997-5.948-11.088-12.938-12.498c-2.067-1.768-3.245-3.771-1.947-6.567c0.249-0.536,0.366-1.704,0.18-1.789
			c-5.055-2.327-5.252-8.697-9.755-11.525c-7.985-5.017-13.942-12.322-20.464-18.927c-8.824-8.937-10.272-11.797-12.949-25.78
			c-0.283-1.48-1.412-2.181-2.337-3.101c-0.87-0.954-0.589-1.856,0.118-2.742C37.282,228.37,37.356,226.507,35.833,224.621z
			 M122.05,222.567c1.438,1.481,3.112,2.793,3.562,4.98c1.959,3.651,3.846,7.345,5.926,10.925c0.566,0.972,1.81,0.674,2.698,0.146
			c1.501-0.891,2.573-0.32,3.314,0.97c0.788,1.371,0.474,2.492-1.067,3.226c-1.359,0.647-1.346,1.804-0.693,2.925
			c0.561,0.961,1.72,1.445,2.57,0.917c2.586-1.608,3.803,0.324,5.501,1.633c3.978,3.065,8.06,6.103,13.743,3.958
			c-1.519,9.444,4.323,14.49,10.188,19.443c1.097,0.928,2.699,1.41,4.064,0.043l-0.015,0.003c4.086,2.007,7.529,1.876,10.017-2.612
			c0.753-1.36,1.989-3.48,3.688-2.793c4.87,1.975,3.829-0.756,2.405-4.051c2.534,1.053,4.63,2.243,4.039,3.917
			c-0.584,1.658-2.008,3.751-4.406,3.974c-0.785,0.074-2.523-1.087-2.031,0.558c1.096,3.66-1.973,4.641-3.591,6.38
			c-1.976,2.12-3.062,5.465-1.419,6.624c3.457,2.442,2.004,3.955-0.117,6.232c4.79-1.747,10.169,0.171,13.912-3.653
			c1.734-1.771,3.736-3.458,4.57-5.968c3.758,1.451,2.946-2.106,3.684-3.712c1.504,0.147,1.736,1.173,2.323,1.951
			c2.13,2.824,4.185,2.532,5.577-0.664c0.326-0.746,0.614-1.553,1.119-2.165c1.459-1.774,3.861-3.626,1.972-5.955
			c-2.057-2.534-4.61-5.026-8.484-4.633c-0.695-0.688-1.393-1.378-2.088-2.066c1.032-3.147-0.712-4.772-3.166-6.246
			c-1.207-0.725-3.548-1.424-1.954-3.583c0.695-0.943,1.951-1.415,0.703-2.694c-1.101-1.128-2.773-2.068-4-1.255
			c-2.934,1.949-3.744,0.289-5.248-1.904c-4.311-6.287-9.395-11.537-19.059-9.16c2.027-2.17,2.893-4.104,1.693-6.277
			c-3.644-6.602-7.826-12.939-16.006-13.911c-3.435-0.408-3.461-1.671-3.066-4.099l0.076-0.005c0.9-0.42,1.475-2.22,2.797-0.795
			c0.539,0.583-0.171,2.432,1.412,1.915c1.477-0.482,0.661-1.948,0.584-3.056c-0.181-2.603-1.398-3.124-3.646-2.009
			c-1.75,0.866-3.245,0.11-4.506-1.078c-1.381-1.305-0.383-2.391,0.516-3.41c1.189-1.353,0.699-3.028-0.525-3.318
			c-4.716-1.113-5.448-5.927-8.492-8.515c-0.742-0.629-1.361-2.16-2.726-0.876c-0.166,2.112,3.847,2.939,2.019,5.001
			s-2.986-2.191-5.1-1.454c-0.224-0.13-0.422-0.289-0.598-0.479c-0.975-1.011-1.949-2.022-2.924-3.033
			c0.847-8.261-9.701-8.041-11.059-14.725c-0.035-0.178-1.522-0.021-2.326-0.089c-7.905-0.656-10.794,5.221-13.376,10.858
			c-0.964,2.104-1.756,2.693-3.839,3.381c-2.045,0.675-6.253,0.541-4.795,5.027c-1.118,1.558-1.5,2.904,0.661,4.016
			c2.344,1.205,1.819,2.408-0.233,3.42c-1.075,0.529-2.282,1.119-1.304,2.561c0.782,1.154,1.998,0.991,3.109,0.393
			c0.977-0.524,2.069-1.85,3.047-0.707c2.723,3.184,6.693,3.984,10.109,5.854c2.179,1.19,2.704,2.681-0.582,3.231
			c-0.651,0.108-1.332,0.501-1.009,1.338c0.149,0.391,0.824,0.979,1.003,0.899c3.629-1.615,4.373,1.364,5.845,3.445
			c1.275,1.802,3.009,2.662,5.021,0.808H122.05z M59.198,237.874c3.471-3.459,4.14-11.449,1.193-14.276
			c-2.944-2.829-6.872-2.7-9.93,0.327c-3.673,3.634-3.967,10.571-0.603,14.283C51.966,240.535,56.699,240.366,59.198,237.874z
			 M158.028,265.652c-0.022-2.697-1.612-3.392-4.089-5.043C154.722,263.79,155.975,264.79,158.028,265.652z M193.402,245.318
			c0.498-0.051,1.088,0.051,1.25-0.167c0.189-0.25,0.152-0.9-0.056-1.168c-0.399-0.513-1.072-0.744-1.483-0.036
			C192.956,244.216,193.268,244.755,193.402,245.318z"/>
		<path fill="#EF7E22" d="M35.757,230.214c-0.708,0.886-0.987,1.787-0.116,2.739c-1.952,1.785-1.987,4.071-1.52,6.392
			c1.427,7.095,4.851,13.252,9.811,18.368c8.544,8.812,17.41,17.312,26.098,25.985c1.277,1.273,2.689,2.608,3.413,4.2
			c2.241,4.924,4.541,9.76,8.545,13.552c-1.122,2.382,1.139,3.137,2.17,4.463c4.451,5.738,11.542,8.266,16.405,13.553
			c12.913,14.042,29.135,23.312,46.338,30.814c2.795,1.219,4.566,5.216,8.499,3.772c0.978,0.876,1.956,1.753,2.933,2.629
			c6.641,6.284,11.227,13.916,15.471,21.973c5.189,9.848,10.571,19.657,19.418,27.067c4.274,3.58,8.002,7.827,11.538,12.296
			c7.871,9.943,14.786,20.782,24.942,28.761c1.356,3.664-0.378,7-1.498,10.221c-0.967,2.782-3.63,1.372-4.893,0.254
			c-3.496-3.092-7.534-5.366-11.216-8.14c-16.242-12.232-30.201-26.977-44.856-40.967c-5.191-4.958-9.088-10.634-10.607-17.334
			c-2.936-12.93-12.441-19.408-22.656-25.729c-6.663-4.123-13.362-8.218-20.031-12.316c-11.126-6.836-19.634-16.436-27.86-26.027
			c-9.444-11.009-20.36-20.599-29.49-31.777c-8.568-10.491-18.081-20.202-26.037-31.148c-3.145-4.325-6.491-8.649-8.77-13.643
			c-2.248-4.931,1.546-7.978,3.218-11.637c0.723-1.582,2.404-2.726,3.651-4.068C31.352,233.598,31.541,228.544,35.757,230.214z"/>
		<path fill="#8C4720" d="M229.701,446.778c-10.156-7.979-17.071-18.817-24.942-28.761c-3.536-4.469-7.264-8.716-11.538-12.296
			c-8.847-7.41-14.229-17.219-19.418-27.067c-4.244-8.057-8.83-15.688-15.471-21.973c3.637,0.657,4.695,5.124,8.398,5.686
			c0.473,0.468,0.943,0.936,1.416,1.402c0.471,0.941,0.942,1.882,1.414,2.822c-0.234,3.816,2.965,5.411,5.013,7.751
			c0.948,2.247,1.765,4.569,3.556,6.347c-0.326,0.992-0.531,2.464,0.263,2.799c5.483,2.305,5.643,8.762,9.375,12.006
			c4.636,4.026,8.822,8.439,12.662,13.072c4.213,5.083,8.699,10.097,11.49,16.273c0.65,1.437,2.162,2.48,3.278,3.706
			c1.895,1.876,3.786,3.752,5.681,5.628c0.354,3.428,2.707,5.562,5.004,7.737c1.023,1.026,2.205,1.253,3.543,0.704
			c0.233,0.231,0.469,0.458,0.708,0.68C229.85,444.438,230.878,445.745,229.701,446.778z"/>
		<path fill="#AA5425" d="M35.757,230.214c-4.216-1.671-4.406,3.384-7.101,4.253c0.533-4.638,4.333-6.894,7.179-9.847
			C37.356,226.507,37.282,228.37,35.757,230.214z"/>
		<path fill="#7C4328" stroke="#7C4328" stroke-miterlimit="10" d="M171.858,271.732c-1.366,1.369-2.968,0.885-4.064-0.043
			c-5.864-4.952-11.707-9.999-10.188-19.443c-5.684,2.145-9.766-0.893-13.743-3.958c-1.698-1.308-2.914-3.24-5.501-1.633
			c-0.85,0.529-2.01,0.045-2.57-0.917c-0.654-1.121-0.666-2.278,0.693-2.925c1.541-0.733,1.855-1.854,1.067-3.226
			c-0.741-1.29-1.812-1.86-3.314-0.97c-0.889,0.527-2.133,0.825-2.698-0.146c-2.081-3.58-3.967-7.273-5.926-10.925
			c0.271-0.249,0.542-0.496,0.813-0.746c0.911,0.96,1.938,1.835,2.714,2.894c2.926,3.987,5.385,3.485,8.537-0.076
			c4.818-5.446,10.133-10.456,15.236-15.651c-0.395,2.428-0.369,3.69,3.066,4.099c8.178,0.973,12.361,7.309,16.006,13.912
			c1.2,2.172,0.332,4.107-1.693,6.276c9.662-2.376,14.747,2.874,19.059,9.16c1.504,2.193,2.315,3.853,5.248,1.904
			c1.225-0.813,2.897,0.125,4,1.255c1.248,1.279-0.008,1.751-0.704,2.694c-1.594,2.16,0.747,2.859,1.954,3.584
			c2.456,1.472,4.199,3.098,3.166,6.246c-1.452-1.369-2.972-2.673-4.335-4.122c-1.671-1.774-3.109-2.832-5.288-0.472
			c-1.873,2.028-3.516,3.709-0.484,5.999c2.746,2.07,2.129,3.937-0.16,6.036c-2.939,2.693-5.531,5.767-8.489,8.44
			c-2.53,2.286-1.441,3.776,0.454,5.674c1.859,1.859,3.291,2.431,5.305,0.19c2.666-2.965,5.668-5.627,8.361-8.571
			c1.952-2.134,3.678-3.354,5.991-0.488c1.932,2.396,3.778,1.92,5.822-0.139c2.323-2.341,1.396-4.02-0.56-5.846
			c-1.576-1.473-3.023-3.086-4.528-4.636c3.874-0.395,6.428,2.098,8.484,4.633c1.89,2.329-0.512,4.182-1.972,5.954
			c-0.506,0.614-0.794,1.421-1.119,2.166c-1.393,3.196-3.448,3.489-5.577,0.664c-0.588-0.778-0.819-1.806-2.323-1.951
			c-0.737,1.604,0.075,5.165-3.683,3.711c-0.835,2.511-2.838,4.198-4.57,5.968c-3.745,3.825-9.122,1.907-13.913,3.654
			c2.119-2.277,3.576-3.79,0.116-6.232c-1.642-1.159-0.556-4.503,1.42-6.624c1.62-1.738,4.686-2.721,3.591-6.38
			c-0.49-1.645,1.246-0.485,2.031-0.558c2.398-0.224,3.822-2.315,4.406-3.974c0.59-1.674-1.506-2.863-4.039-3.917
			c1.424,3.296,2.465,6.025-2.406,4.051c-1.695-0.688-2.934,1.433-3.688,2.792c-2.484,4.488-5.928,4.62-10.017,2.613
			c1.784-1.046,4.024-0.688,5.667-2.538c3.627-4.086,7.592-7.876,11.472-11.732c1.405-1.397,1.729-2.624,1.195-4.766
			c-1.294-5.194-5.918-7.363-8.962-10.937c-1.842-2.162-4.111-1.905-6.738-1.229c-5.428,1.398-8.131,5.966-11.757,9.424
			c-4.325,4.124-4.294,8.618-0.158,12.789C165.595,265.807,168.755,268.743,171.858,271.732z M162.633,244.206
			c7.278-7.366,7.168-7.36,6.889-11.76c-0.299-4.696-4.459-6.368-7.059-9.179c-4.111-4.447-8.574-4.323-12.787-0.158
			c-2.017,1.992-3.782,4.303-6.026,5.981c-5.603,4.194-4.842,10.688-0.07,15.185C152.557,252.73,154.596,253.425,162.633,244.206z"
			/>
		<path fill="#B9872C" d="M152.914,213.97c-5.105,5.194-10.417,10.204-15.236,15.651c-3.152,3.561-5.611,4.063-8.538,0.076
			c-0.776-1.058-1.802-1.935-2.714-2.894c1.62-1.671,3.199-3.387,4.877-5.001c1.56-1.499,1.349-2.721-0.123-4.188
			c-1.514-1.504-2.739-1.525-4.186,0.016c-1.592,1.697-3.291,3.297-4.943,4.937l0.024,0.001c-1.085-1.027-2.08-2.18-3.275-3.059
			c-3.627-2.664-3.251-4.895-0.013-7.844c5.521-5.028,10.646-10.491,15.938-15.772c0.176,0.19,0.375,0.349,0.598,0.479
			c5.723,5.611,5.809,5.678,1.229,11.522c-1.418,1.811-0.881,2.803,0.429,4.181c1.878,1.977,3.067,0.79,4.519-0.555
			c4.811-4.459,4.842-4.427,9.434,0.281c0.694,0.714,1.372,1.443,2.058,2.165L152.914,213.97z"/>
		<path fill="#B9872C" d="M205.103,265.164c1.505,1.55,2.95,3.163,4.528,4.636c1.955,1.827,2.883,3.506,0.559,5.846
			c-2.044,2.059-3.891,2.534-5.822,0.139c-2.312-2.867-4.039-1.646-5.991,0.488c-2.692,2.943-5.694,5.604-8.36,8.57
			c-2.016,2.24-3.445,1.669-5.306-0.19c-1.896-1.896-2.984-3.387-0.453-5.674c2.956-2.673,5.548-5.747,8.488-8.441
			c2.29-2.099,2.905-3.964,0.161-6.035c-3.032-2.289-1.39-3.969,0.483-5.999c2.18-2.359,3.617-1.303,5.288,0.472
			c1.365,1.45,2.884,2.755,4.335,4.123C203.712,263.787,204.407,264.476,205.103,265.164z"/>
		<path fill="#8C4720" d="M155.398,354.054c-3.932,1.442-5.703-2.555-8.498-3.772c-17.203-7.502-33.426-16.771-46.339-30.815
			c-4.862-5.287-11.954-7.814-16.405-13.552c-1.03-1.327-3.292-2.081-2.169-4.464c0.309-0.268,0.616-0.536,0.923-0.804
			c6.99,1.41,10.266,6.501,12.938,12.499c0.705,1.58,2.223,3.844,5.16,2.119c2.467-1.448,3.562,1.078,4.598,2.566
			c2.374,3.408,4.522,6.842,9.13,7.705c1.289,0.243,2.817,1.46,2.708,3.15c-0.098,1.514-1.814-0.387-2.259,0.585
			c2.027,4.164,6.305,6.728,9.783,6.873c5.36,0.226,6.547,5.54,11.336,6.673c3.811,0.902,7.795,3.919,11.947,5.516
			C150.633,350.24,153.018,352.146,155.398,354.054z"/>
		<path fill="#7C4328" stroke="#7C4328" stroke-miterlimit="10" d="M134.724,195.893c-5.292,5.281-10.417,10.743-15.938,15.772
			c-3.238,2.95-3.614,5.18,0.013,7.844c1.196,0.878,2.189,2.03,3.275,3.059c-2.011,1.853-3.745,0.994-5.02-0.809
			c-1.475-2.08-2.217-5.061-5.847-3.444c-0.179,0.08-0.853-0.51-1.002-0.9c-0.322-0.836,0.358-1.229,1.01-1.339
			c3.285-0.551,2.759-2.04,0.582-3.231c-3.417-1.867-7.386-2.669-10.109-5.853c-0.979-1.143-2.071,0.183-3.049,0.708
			c-1.11,0.597-2.326,0.761-3.108-0.393c-0.978-1.442,0.229-2.032,1.305-2.562c2.053-1.011,2.576-2.214,0.232-3.418
			c-2.163-1.112-1.78-2.459-0.661-4.017l0.295,0.001c3.732,3.784,7.466,7.568,11.198,11.355c2.896,2.941,5.734,2.798,8.549-0.13
			c1.382-1.438,2.759-2.884,4.206-4.255c1.608-1.524,1.323-2.947,1.076-5.135c-0.395-3.493-4.415-4.704-4.423-9.513
			c2.95,2.915,4.759,5.476,7.217,6.953c3.807,2.288,4.795-2.195,7.021-3.725l0.255-0.006
			C132.774,193.87,133.75,194.881,134.724,195.893z"/>
		<path fill="#8B4520" d="M82.91,300.646c-0.306,0.267-0.613,0.535-0.923,0.804c-4.005-3.791-6.304-8.628-8.546-13.551
			c-0.724-1.592-2.136-2.927-3.412-4.201c-8.688-8.673-17.555-17.172-26.098-25.984c-4.961-5.116-8.383-11.273-9.811-18.368
			c-0.467-2.319-0.431-4.607,1.521-6.392c0.924,0.922,2.052,1.622,2.335,3.103c2.676,13.983,4.125,16.844,12.949,25.78
			c6.523,6.604,12.48,13.911,20.465,18.927c4.501,2.827,4.698,9.197,9.754,11.524c0.186,0.086,0.068,1.255-0.18,1.79
			C79.666,296.874,80.844,298.879,82.91,300.646z"/>
		<path fill="#301D14" d="M59.198,237.874c-2.499,2.49-7.232,2.661-9.339,0.334c-3.364-3.712-3.071-10.649,0.603-14.283
			c3.059-3.027,6.986-3.156,9.93-0.327C63.338,226.426,62.67,234.416,59.198,237.874z"/>
		<path fill="#7C4328" stroke="#7C4328" stroke-miterlimit="10" d="M152.988,213.966c-0.685-0.723-1.362-1.453-2.058-2.165
			c-4.591-4.71-4.624-4.741-9.434-0.28c-1.452,1.345-2.642,2.532-4.519,0.554c-1.309-1.378-1.846-2.37-0.428-4.18
			c4.578-5.847,4.494-5.912-1.229-11.523c2.113-0.737,3.27,3.517,5.1,1.454c1.828-2.062-2.184-2.889-2.019-5.002
			c1.364-1.283,1.983,0.247,2.724,0.877c3.047,2.588,3.777,7.401,8.494,8.515c1.225,0.29,1.715,1.967,0.523,3.319
			c-0.896,1.019-1.896,2.105-0.514,3.409c1.262,1.188,2.756,1.944,4.506,1.077c2.25-1.115,3.465-0.593,3.646,2.011
			c0.077,1.106,0.894,2.572-0.583,3.055c-1.583,0.518-0.873-1.333-1.412-1.915C154.465,211.745,153.889,213.545,152.988,213.966z"/>
		<path fill="#7C4328" stroke="#7C4328" stroke-miterlimit="10" d="M96.407,197.312c-1.458-4.486,2.749-4.352,4.794-5.027
			c2.083-0.688,2.876-1.276,3.839-3.381c2.582-5.637,5.471-11.515,13.375-10.858c0.804,0.067,2.291-0.089,2.327,0.089
			c1.357,6.685,11.906,6.465,11.058,14.725c0,0-0.255,0.006-0.252,0.006c-2.916-2.964-5.803-5.958-8.758-8.883
			c-3.993-3.95-8.551-4.275-12.13-0.939c-4.731,4.41-5.061,8.639-1.077,13.229c0.668,0.77,1.949,1.368,0.985,3.324
			c-4.311-2.917-8.118-10.435-13.866-2.283H96.407z"/>
		<path fill="#7D4321" d="M155.398,354.054c-2.381-1.907-4.766-3.813-7.146-5.72c2.062-2.563-1.449-4.879-0.112-8.058
			c2.709,3.058,5.52,5.668,7.595,8.769c1.424,2.131,2.801,3.177,5.354,3.588c4.62,0.745,7.15,5.473,5.643,9.732
			c-3.703-0.56-4.762-5.027-8.399-5.685C157.354,355.807,156.376,354.931,155.398,354.054z"/>
		<path fill="#7D4321" d="M169.561,366.592c-0.473-0.941-0.943-1.882-1.414-2.822c0.68-0.516,1.346-0.781,2.264-0.467
			c6.915,2.375,10.395,10.17,7.719,17.387c-1.789-1.776-2.604-4.1-3.555-6.347C177.306,368.911,172.418,368.408,169.561,366.592z"/>
		<path fill="#7C4328" stroke="#7C4328" stroke-miterlimit="10" d="M122.05,222.567c1.651-1.642,3.35-3.241,4.943-4.938
			c1.445-1.54,2.672-1.52,4.187-0.015c1.473,1.466,1.682,2.688,0.123,4.187c-1.679,1.615-3.257,3.331-4.877,5.001
			c-0.271,0.249-0.542,0.497-0.813,0.746C125.163,225.361,123.488,224.049,122.05,222.567z"/>
		<path fill="#7D4321" d="M220.877,434.173c-1.895-1.876-3.786-3.752-5.681-5.628c0.53-0.392,1.06-1.124,1.59-1.124
			c5.022-0.016,13.13,9.8,12.639,15.194c-1.338,0.549-2.52,0.322-3.544-0.705C226.949,437.562,224.693,435.363,220.877,434.173z"/>
		<path fill="#7C4328" stroke="#7C4328" stroke-miterlimit="10" d="M158.028,265.652c-2.054-0.862-3.307-1.862-4.089-5.043
			C156.416,262.261,158.007,262.956,158.028,265.652z"/>
		<path fill="#7C4328" stroke="#7C4328" stroke-miterlimit="10" d="M193.402,245.318c-0.134-0.563-0.446-1.103-0.289-1.371
			c0.411-0.708,1.086-0.477,1.483,0.036c0.208,0.268,0.245,0.918,0.056,1.168C194.49,245.369,193.9,245.268,193.402,245.318z"/>
		<path fill="#7C4328" d="M169.561,366.592c2.857,1.816,7.745,2.319,5.013,7.751C172.524,372.002,169.324,370.406,169.561,366.592z"
			/>
		<path fill="#7C4328" d="M220.877,434.173c3.816,1.19,6.072,3.389,5.004,7.737C223.584,439.736,221.232,437.601,220.877,434.173z"
			/>
		<path fill="#B9872C" d="M171.858,271.732c-3.104-2.991-6.264-5.926-9.298-8.985c-4.136-4.172-4.167-8.666,0.158-12.79
			c3.626-3.458,6.329-8.025,11.756-9.423c2.629-0.678,4.896-0.934,6.738,1.229c3.044,3.574,7.668,5.741,8.963,10.936
			c0.534,2.141,0.211,3.368-1.196,4.767c-3.881,3.856-7.845,7.646-11.472,11.732c-1.643,1.848-3.883,1.492-5.665,2.537
			C171.844,271.735,171.858,271.732,171.858,271.732z M174.287,252.295c-1.387,1.403-1.969,1.981-2.539,2.572
			c-1.356,1.404-3.086,2.605-0.955,4.854c2.205,2.323,3.649,1.08,5.229-0.651c1.328-1.454,2.752-2.82,4.102-4.253
			c0.973-1.032,0.808-2.092-0.132-3.034c-0.894-0.895-1.747-2.366-3.22-1.59C175.505,250.861,174.53,252.081,174.287,252.295z"/>
		<path fill="#B9872C" d="M162.633,244.206c-8.037,9.219-10.078,8.523-19.052,0.069c-4.772-4.494-5.532-10.99,0.069-15.185
			c2.244-1.678,4.012-3.99,6.025-5.981c4.213-4.166,8.677-4.289,12.789,0.159c2.598,2.81,6.759,4.481,7.058,9.178
			C169.802,236.847,169.912,236.841,162.633,244.206z M157.27,238.117c0.004,0.004,0.009,0.009,0.014,0.013
			c0.348-0.353,0.672-0.736,1.051-1.054c2.334-1.957,3.376-3.735,0.561-6.429c-2.661-2.543-4.248-1.361-6.076,0.729
			c-0.979,1.119-2.08,2.131-3.119,3.196c-1.916,1.965-2.137,4.417-0.309,6.145c1.605,1.517,3.98,1.247,5.781-0.484
			C155.887,239.544,156.572,238.822,157.27,238.117z"/>
		<path fill="#B9872C" d="M96.702,197.312c5.746-8.149,9.555-0.634,13.865,2.284c0.964-1.956-0.316-2.556-0.984-3.325
			c-3.984-4.591-3.655-8.817,1.077-13.229c3.579-3.336,8.137-3.011,12.129,0.94c2.956,2.924,5.842,5.919,8.757,8.882
			c-2.229,1.53-3.216,6.014-7.023,3.726c-2.458-1.477-4.267-4.038-7.217-6.954c0.008,4.81,4.028,6.021,4.423,9.514
			c0.247,2.188,0.534,3.609-1.077,5.136c-1.446,1.371-2.823,2.816-4.205,4.254c-2.813,2.927-5.651,3.071-8.548,0.129
			C104.168,204.881,100.434,201.099,96.702,197.312z"/>
		<path fill="#804520" d="M174.287,252.295c0.243-0.214,1.218-1.434,2.484-2.102c1.473-0.776,2.327,0.695,3.221,1.591
			c0.939,0.942,1.104,2.001,0.131,3.033c-1.35,1.433-2.772,2.8-4.1,4.254c-1.58,1.731-3.025,2.975-5.229,0.651
			c-2.132-2.249-0.402-3.45,0.955-4.854C172.317,254.277,172.9,253.698,174.287,252.295z"/>
		<path fill="#7C4328" d="M157.27,238.117c-0.699,0.707-1.382,1.427-2.098,2.116c-1.799,1.732-4.175,2.002-5.781,0.484
			c-1.826-1.728-1.607-4.18,0.309-6.145c1.039-1.065,2.141-2.078,3.12-3.196c1.827-2.09,3.415-3.272,6.076-0.729
			c2.815,2.693,1.772,4.472-0.562,6.429c-0.379,0.317-0.702,0.701-1.051,1.054C157.277,238.125,157.273,238.121,157.27,238.117z"/>
	</g>
</g>
</svg>
