<?xml version="1.0" encoding="utf-8"?>
<!-- Generator: Adobe Illustrator 16.0.0, SVG Export Plug-In . SVG Version: 6.00 Build 0)  -->
<!DOCTYPE svg PUBLIC "-//W3C//DTD SVG 1.1//EN" "http://www.w3.org/Graphics/SVG/1.1/DTD/svg11.dtd">
<svg version="1.1" id="Ebene_1" xmlns="http://www.w3.org/2000/svg" xmlns:xlink="http://www.w3.org/1999/xlink" x="0px" y="0px"
	 width="260px" height="484px" viewBox="0 0 260 484" enable-background="new 0 0 260 484" xml:space="preserve">
<g id="tjubBX_1_">
	<g>
		<path fill="#492115" d="M163.363,405.371c-4.93-5.197-9.461-10.854-14.857-15.512c-25.488-21.996-47.23-47.636-70.302-71.965
			c-14.02-14.785-27.442-30.205-40.211-46.08c-5.065-6.3-11.15-11.824-15.427-18.615c-4.736-7.518-11.717-13.305-15.624-21.417
			c-1.098-2.277-0.988-4.216-0.388-6.369c2.022-7.246,6.985-12.76,10.854-18.963c5.22-8.373,13.063-14.327,18.778-22.261
			c4.615-6.409,11.401-11.207,16.539-17.296c13.013-15.422,28.872-28.081,41.736-43.623c5.001-6.042,11.791-9.639,18.531-13.338
			c2.992-1.642,5.764-3.691,8.725-5.436c5.451-3.21,10.83-6.576,16.344-9.713c5.682-3.232,7.101-9.334,9.052-14.831
			c2.305-6.492,5.191-12.414,10.352-17.16c13.113-12.068,25.623-24.854,39.347-36.172c9.628-7.94,18.626-16.811,29.446-23.256
			c2.4-1.43,5.066-2.753,7.772-3.255c4.728-0.877,10.882,3.664,12.492,8.44c4.237,12.58,5.274,25.605,6.192,38.756
			c2.953,42.312-0.604,84.575-0.381,126.859c0.231,44.248-0.512,88.491-0.39,132.733c0.116,41.842-2.054,83.608-3.011,125.412
			c-0.211,9.187,0.027,18.83-3.331,27.851c-1.707,4.583-5.681,7.048-9.011,10.087c-0.912,0.835-2.692,0.578-3.645-0.59
			c-2.458-3.016-6.271-4.277-8.95-6.87c-11.802-11.421-24.5-21.872-35.75-33.907C180.469,420.557,170.817,414.109,163.363,405.371z
			 M235.117,30.518c1.07-3.608-1.275-6.711-1.568-10.142c-0.115-1.353-1.36-0.473-2.302-0.108
			c-6.679,2.587-11.583,7.869-17.34,11.78c-8.819,5.991-15.952,14.221-24.711,20.578c-7.759,5.63-14.212,13.047-21.308,19.602
			c-3.305,3.053-5.494,6.796-6.504,11.052c-3.41,14.357-13.188,23.311-25.545,29.737c-7.187,3.737-14.849,7.098-20.743,12.362
			c-16.541,14.776-33.058,29.615-47.422,46.711c-7.72,9.189-16.926,17.076-24.634,26.423c-5.808,7.044-11.998,13.705-16.84,21.525
			c-5.114,8.264-5.225,8.967,1.213,15.814c-0.053,1.528,0.263,2.816,1.354,4.082c4.607,5.345,8.998,10.88,13.375,16.398
			C52.194,269,63.051,281.181,74.111,292.919c32.122,34.092,63.098,69.284,97.475,101.282c16.842,15.677,32.465,32.723,49.387,48.4
			c2.492,2.309,5.847,2.946,8.256,5.383c1.238,1.254,2.705-0.602,2.701-1.77c-0.012-3.529,1.77-6.74,1.707-10.179
			c-0.272-15.274,2.121-30.382,1.729-45.753c-0.599-23.465,0.688-46.981,0.205-70.494c-0.362-17.598,0.229-35.205,0.208-52.814
			c-0.036-29.946-0.479-59.885-0.586-89.822c-0.154-43.229,2.629-86.445,1.678-129.699
			C236.747,41.798,235.725,36.164,235.117,30.518z"/>
		<path fill="#AC772B" d="M235.117,30.518c0.607,5.645,1.63,11.28,1.754,16.936c0.951,43.254-1.833,86.471-1.677,129.698
			c0.106,29.938,0.549,59.876,0.585,89.823c0.021,17.607-0.57,35.217-0.208,52.813c0.481,23.514-0.802,47.03-0.205,70.495
			c0.392,15.369-2.002,30.478-1.729,45.752c0.062,3.438-1.719,6.648-1.707,10.18c0.004,1.167-1.463,3.021-2.701,1.768
			c-2.409-2.436-5.766-3.072-8.256-5.381c-16.922-15.68-32.545-32.726-49.387-48.402c-34.377-31.998-65.353-67.189-97.474-101.281
			c-11.06-11.737-21.917-23.919-31.968-36.587c-4.378-5.519-8.769-11.054-13.375-16.398c-1.09-1.266-1.408-2.553-1.353-4.081
			c7.584-7.247,15-14.68,22.81-21.674c4.79-4.289,7.761-9.64,10.992-14.996c4.386-7.274,7.972-15.165,15.041-20.567
			c6.529-4.989,13.232-9.725,19.227-15.454c5.817-5.56,11.446-11.285,18.522-15.627c7.954-4.881,16.35-8.69,24.596-12.895
			c7.135-3.639,14.31-7.003,20.592-12.357c9.36-7.979,14.235-18.778,20.151-28.931c5.229-8.979,9.968-18.256,18.322-24.849
			c7.221-5.699,11.264-14.239,18.289-20.097c0.7-0.582,0.82-1.809,1.432-2.555C222.409,39.72,225.938,31.843,235.117,30.518z
			 M174.141,230.988c-9.277-9.78-18.553-19.562-27.836-29.337c-0.916-0.965-1.771-2.027-2.83-2.806
			c-2.487-1.83-4.92-1.243-5.148,1.754c-0.265,3.485-1.449,6.699-1.919,10.104c-1.183,8.552-2.8,17.043-4.222,25.562
			c-1.91,11.436-3.699,22.893-5.751,34.301c-0.794,4.412,1.22,5.6,4.981,5.121c6.955-0.885,13.923-1.588,20.896-2.293
			c16.055-1.621,32.048-3.839,48.085-5.654c1.966-0.224,3.662-0.465,4.594-2.262c1.087-2.096-0.98-2.953-2.004-4.046
			C193.414,251.245,183.771,241.123,174.141,230.988z M48.427,235.131c-4.835,2.898-6.005,7.764-3.82,14.461
			c1.139,3.489,4.583,1.736,5.945,4.412c1.257,2.471,4.01,1.729,6.572,0.646c3.722-1.567,5.631-4.537,8.102-7.436
			c3.495-4.1,4.507-8.091,3.328-13.054c-1.283-5.401-5.28-7.164-10.64-5.653C54.253,229.542,52.033,231.995,48.427,235.131z
			 M83.62,226.608c-6.06,5.762-6.325,9.428-1.078,14.937c3.907,4.102,9.392,4.659,12.96,1.318c4.642-4.343,4.551-11.993-0.203-16.98
			C90.552,220.902,89.556,220.963,83.62,226.608z"/>
		<path fill="#D4B991" d="M235.117,30.518c-9.178,1.325-12.708,9.202-17.729,15.332c-0.61,0.746-0.732,1.973-1.433,2.557
			c-7.022,5.856-11.065,14.396-18.288,20.096c-8.354,6.592-13.092,15.868-18.324,24.85c-5.914,10.151-10.789,20.951-20.149,28.93
			c-6.282,5.355-13.457,8.719-20.593,12.358c-8.245,4.205-16.641,8.014-24.595,12.896c-7.076,4.342-12.705,10.067-18.521,15.626
			c-5.995,5.729-12.698,10.465-19.228,15.454c-7.068,5.402-10.653,13.292-15.041,20.567c-3.23,5.356-6.202,10.706-10.992,14.996
			c-7.81,6.993-15.227,14.425-22.811,21.673c-6.438-6.848-6.329-7.55-1.212-15.813c4.843-7.821,11.032-14.482,16.84-21.525
			c7.708-9.348,16.913-17.234,24.634-26.423c14.364-17.096,30.88-31.935,47.422-46.711c5.894-5.265,13.557-8.625,20.743-12.362
			c12.357-6.427,22.137-15.381,25.545-29.737c1.011-4.256,3.199-8,6.504-11.052c7.096-6.556,13.549-13.972,21.308-19.603
			c8.759-6.356,15.892-14.587,24.711-20.577c5.757-3.911,10.66-9.194,17.34-11.78c0.941-0.365,2.187-1.244,2.302,0.108
			C233.842,23.807,236.188,26.911,235.117,30.518z"/>
		<path fill="#8F6235" d="M174.146,230.984c9.625,10.138,19.268,20.261,28.84,30.45c1.023,1.09,3.091,1.948,2.004,4.045
			c-0.934,1.797-2.628,2.037-4.595,2.262c-16.037,1.815-32.03,4.031-48.084,5.654c-6.976,0.704-13.941,1.407-20.896,2.293
			c-3.762,0.479-5.775-0.707-4.981-5.121c2.051-11.41,3.841-22.865,5.751-34.3c1.423-8.52,3.041-17.01,4.222-25.562
			c0.472-3.405,1.654-6.618,1.919-10.103c0.229-2.996,2.661-3.584,5.148-1.754c1.059,0.778,1.914,1.841,2.83,2.806
			C155.588,211.426,164.863,221.208,174.146,230.984z"/>
		<path fill="#845C25" d="M48.427,235.131c3.606-3.136,5.825-5.59,9.487-6.621c5.359-1.51,9.356,0.252,10.64,5.653
			c1.179,4.963,0.167,8.954-3.328,13.054c-2.469,2.896-4.378,5.867-8.102,7.436c-2.562,1.08-5.315,1.822-6.573-0.646
			c-1.362-2.677-4.807-0.923-5.945-4.412C42.422,242.895,43.592,238.029,48.427,235.131z"/>
		<path fill="#855D25" d="M83.62,226.608c5.937-5.645,6.932-5.706,11.679-0.725c4.754,4.987,4.845,12.637,0.203,16.98
			c-3.568,3.341-9.053,2.781-12.96-1.318C77.295,236.036,77.56,232.369,83.62,226.608z"/>
	</g>
</g>
</svg>
