<?xml version="1.0" encoding="utf-8"?>
<!-- Generator: Adobe Illustrator 16.0.0, SVG Export Plug-In . SVG Version: 6.00 Build 0)  -->
<!DOCTYPE svg PUBLIC "-//W3C//DTD SVG 1.1//EN" "http://www.w3.org/Graphics/SVG/1.1/DTD/svg11.dtd">
<svg version="1.1" id="Ebene_1" xmlns="http://www.w3.org/2000/svg" xmlns:xlink="http://www.w3.org/1999/xlink" x="0px" y="0px"
	 width="260px" height="484px" viewBox="0 0 260 484" enable-background="new 0 0 260 484" xml:space="preserve">
<g id="FKZqIg_1_">
	<g>
		<path fill="#492014" d="M170.373,341.652c-7.171,7.479-14.343,14.955-21.514,22.434c-1.621,1.646-3.242,3.293-4.863,4.941
			c-0.485,0.471-0.975,0.94-1.46,1.414c-9.415,9.408-18.359,19.358-28.361,28.096c-13.776,12.033-25.514,26.184-39.514,37.818
			c-9.084,7.551-16.188,17.137-25.747,23.905c-7.663,5.429-13.198,13.267-21.589,17.814c-2.515,1.362-3.571,0.348-5.062-0.908
			c-5.231-4.41-8.214-9.705-8.813-16.852c-1.286-15.296-0.711-30.617-1.426-45.902c-1.163-24.854-2.062-49.711-1.773-74.588
			c0.287-24.619-0.525-49.244,0.019-73.84c0.422-19.103-0.64-38.206,0.285-57.265c1.842-37.987-1.004-75.938-0.24-113.901
			c0.422-20.974,0.792-42.001,4.129-62.755c1.231-7.66,2.533-15.769,8.686-21.616c3.357-3.189,6.854-3.23,11.116-1.029
			c10.656,5.503,18.78,14.144,28.094,21.307c15.619,12.01,28.708,26.615,43.355,39.574c6.83,6.042,10.308,13.821,12.873,22.064
			c1.943,6.247,5.2,10.531,11.202,13.439c3.612,1.751,6.936,4.363,10.465,6.493c7.586,4.576,15.099,9.289,22.438,14.246
			c6.245,4.219,11.51,9.845,15.986,15.649c4.505,5.841,9.939,10.566,14.854,15.875c5.651,6.105,12.354,11.354,17.334,17.931
			c5.846,7.718,13.367,13.732,19.389,21.18c5.972,7.389,12.082,14.679,17.731,22.309c3.118,4.208,5.795,8.85,7.979,13.613
			c2.354,5.141,0.516,10.028-2.998,14.075c-7.237,8.344-14.182,16.986-20.983,25.613c-7.625,9.672-16.888,17.811-24.187,27.566
			C196.572,315.334,182.723,327.785,170.373,341.652z M29.491,35.562c-1.321,1.903-1.034,3.799,0.026,5.692
			c-3.651,14.714-1.086,29.765-2.088,44.641c-0.416,6.156-0.583,12.755,0.248,19.296c0.709,5.598,0.011,11.957-0.155,17.94
			c-0.783,28.141,1.863,56.269-0.019,84.466c-0.899,13.465-0.156,27.058-0.799,40.607c-0.914,19.328,0.842,38.656-0.263,58.065
			c-1.09,19.097-0.571,38.336-0.511,57.494c0.089,28.799-0.878,57.676,2.577,86.394c0.244,2.026-0.946,5.139,1.623,5.645
			c2.049,0.402,4.783-0.473,6.671-2.244c5.01-4.69,10.135-9.217,15.441-13.604c12.301-10.172,23.165-22.063,34.697-33.14
			c28.452-27.323,55.466-56.164,82.59-84.838c11.787-12.457,24.16-24.291,34.895-37.926c9.924-12.606,21.223-24.352,31.781-36.594
			c1.092-1.264,3.306-2.146,1.902-4.5c3.43-4.85,2.629-9.51-2.748-16.28c-7.017-8.831-14.602-17.174-21.508-26.117
			c-6.33-8.193-13.899-15.546-21.138-22.844c-16.391-16.527-31.337-34.72-51.082-47.804c-6.518-4.318-13.283-8.305-19.906-12.344
			c-8.749-5.334-14.294-12.191-17.199-21.646c-1.995-6.486-4.791-12.435-10.124-16.953C86.245,72.057,79.338,63.865,70.3,57.743
			c-8.524-5.774-14.854-14.389-23.768-20.092c-4.882-3.124-9.001-7.514-14.763-9.849C31.007,30.396,30.248,32.978,29.491,35.562z"/>
		<path fill="#7C4328" d="M238.107,242.957c1.402,2.354-0.812,3.236-1.902,4.5c-10.561,12.242-21.857,23.986-31.781,36.594
			c-10.734,13.635-23.107,25.469-34.895,37.926c-27.124,28.674-54.139,57.515-82.59,84.838
			c-11.532,11.074-22.396,22.968-34.697,33.14c-5.307,4.387-10.431,8.912-15.441,13.604c-1.888,1.771-4.622,2.646-6.671,2.244
			c-2.569-0.506-1.379-3.616-1.623-5.645c-3.455-28.718-2.487-57.595-2.577-86.394c-0.06-19.158-0.579-38.397,0.511-57.494
			c1.105-19.409-0.65-38.737,0.263-58.065c0.643-13.55-0.101-27.142,0.799-40.607c1.882-28.197-0.764-56.325,0.019-84.466
			c0.166-5.983,0.864-12.342,0.155-17.94c-0.831-6.542-0.664-13.141-0.248-19.296c1.002-14.876-1.562-29.927,2.086-44.641
			c3.698,3.307,7.372,6.636,11.161,9.843c4.789,4.056,10.235,7.729,12.8,14.218c1.258,3.18,3.532,6.548,6.878,8.315
			c6.297,3.327,9.214,9.806,13.989,14.543c1.762,1.75,2.53,4.127,2.43,6.821c-0.064,1.706,0.061,4.067,2.41,4.33
			c3.66,0.41,4.42,3.301,5.271,5.855c0.916,2.746,2.014,5.234,4.167,7.192c-1.773,4.867,3.808,3.825,5.042,6.277
			c0.008,0.475,0.018,0.949,0.028,1.424c-3.376,3.758-0.663,5.557,2.424,6.922c0.979,0.434,2.487,0.126,2.989,1.297
			c2.827,6.599,10.094,9.308,13.45,15.461c0.493,0.901,1.426,2.343,3.172,1.625c0.501-2.152-3.095-2.596-2.159-4.852
			c2.065-0.777,3.402,1.461,5.286,0.978l-0.047-0.024c1.594,1.618,3.408,2.769,5.789,2.716c2.749-1.729,3.69,1.4,5.479,2.156
			c11.262,4.752,21.813,10.7,30.729,19.24c5.523,5.294,11.084,10.552,16.646,15.807c0.842,0.794,1.673,1.715,2.688,2.185
			c9.464,4.368,14.677,12.62,19.646,21.153c3.171,5.447,5.812,11.417,9.932,16.048c6.944,7.811,14.954,14.666,22.345,22.095
			C234.314,245.148,236.055,245.486,238.107,242.957z M111.028,267.611c0.959,0.869,1.898,0.838,2.818-0.064
			c0.235-0.229,0.467-0.463,0.694-0.697c0.716,0.213,0.959-0.035,0.725-0.744c1.148-1.192,2.297-2.387,3.445-3.579
			c2.925,2.268,4.583,4.334,1.093,7.895c-2.711,2.765-2.318,6.838-1.613,10.47c0.336,1.723,0.621,4.698,3.502,1.127
			c1.541-1.912,4.285-0.009,6.463,0.452c-1.088,3.687,2.698,5.021,3.778,7.699c0.918,2.271,2.684,2.183,4.228,0.267l-0.025,0.006
			c4.964-1.64,8.777,1.637,13.065,2.963c1.33,0.408,2.423,0.977,3.445,1.842c0.922,0.779,2.078,0.734,2.602-0.236
			c2.292-4.254,5.508-7.67,9.146-10.766c0.959-0.816,1.408-2.34,0.823-3.203c-3.171-4.695-0.341-11.986-6.832-15.297
			c-1.711-0.873-0.14-1.826,0.888-2.406c1.16-0.656,1.666-1.682,1.194-2.928c-0.2-0.525-0.836-1.203-1.321-1.242
			c-1.6-0.131-1.649,1.221-1.948,2.348c-0.501,1.894-2.155,2.642-3.755,2.664c-2.426,0.037-1.338-2.014-1.611-3.342
			c-1.107-5.361-6.501-8.496-12.057-7.143c-2.107,0.086-4.133,0.207-6.103,1.324c-0.917,0.52-2.849,0.871-3.518-0.443
			c-0.511-1.006,0.872-1.958,1.59-2.832c1.809-1.238,2.178-3.248,2.728-5.146c0.312-1.069,0.739-3.225-0.187-3.014
			c-4.776,1.078-5.54-4.067-8.797-5.188c-2.651-0.912-1.497-2.524-1.324-4.629c0.215-2.565-4.125,1.499-4.993-1.758
			c-0.082-0.311-0.231-0.667-0.153-0.949c1.227-4.45-2.854-4.998-4.929-7.4c-1.281,3.288,4.316,3.985,1.963,7.171l0.021-0.006
			c-5.195-0.805-5.199-0.806-4.424-6.582c0.042-0.314,0.274-0.597,0.353-0.911c0.737-3.001-1.945-3.906-3.53-5.24
			c-1.845-1.553-2.786,0.63-3.923,1.645c0,0,0.016,0.013,0.016,0.01c-2.897-1.681-0.761-4.322-1.324-6.282
			c-0.572-2.003-4.897,0.71-5.788-2.928c-0.411-1.67-1.792-1.748-3.028-0.45c-0.204,0.168-0.412,0.33-0.626,0.487
			c-3.739-0.166-6.606,2.219-9.495,3.889c-1.816,1.049-1.952,1.129-3.233-0.384c-1.605-1.89-2.61-5.36-6.382-3.824l0.021-0.001
			c-6.521-0.247-11.539,8.991-8.425,15.553c2.088,4.399,6.232,6.304,10.26,8.332l-0.04-0.029c1.267,1.065,2.204,3.317,4.352,1.21
			c0.189-0.168,0.377-0.335,0.57-0.5c2.187,1.305,5.11-1.46,7.038,1.275c-0.611,0.748-1.225,1.493-1.834,2.24
			c-3.498,0.918-0.483,1.875-0.018,2.816c0.198,0.229,0.381,0.469,0.554,0.716c-0.822,0.958-0.754,1.891,0.078,2.803
			c-0.182,1.567,1.021,3.245-0.393,4.717c-2.48,2.577,2.378,3.013,1.574,5.237c-0.131,0.363,0.993,0.498,1.58,0.025
			c1.621-1.308,1.271-2.834,0.533-4.424c-0.045-0.1,0.12-0.296,0.189-0.447c2.307,0.793,3.018,4.011,5.917,3.899l-0.018-0.034
			c2.148,1.571,3.218,3.893,4.093,6.592c2.564-1.185,2.275-5.199,5.806-5.022c-0.716,2.206-1.353,4.163-1.988,6.12
			c0.382,2.762,3.919,6.199,6.464,6.285C111.005,267.615,111.028,267.613,111.028,267.611z M117.396,144.793
			c2.733,4.178,6.454,3.651,9.625,6.364C125.293,146.062,121.711,146.183,117.396,144.793z M81.125,210.741
			c0.494,0.409,1.034,0.967,1.648,0.344c0.606-0.618,0.084-1.186-0.375-1.631c-0.456-0.443-1.032-0.965-1.643-0.345
			C80.145,209.729,80.702,210.26,81.125,210.741z"/>
		<path fill="#BA882D" d="M238.107,242.957c-2.054,2.529-3.793,2.191-6.049-0.076c-7.39-7.43-15.398-14.285-22.344-22.095
			c-4.12-4.632-6.761-10.602-9.932-16.048c-4.971-8.533-10.184-16.785-19.646-21.153c-1.016-0.47-1.847-1.391-2.688-2.185
			c-5.562-5.255-11.121-10.512-16.646-15.807c-8.915-8.54-19.468-14.487-30.729-19.24c-1.788-0.755-2.729-3.884-5.48-2.155
			c-1.933-0.899-2.635-4.415-5.787-2.717c0,0,0.047,0.024,0.045,0.024c-2.523-4.016-7.605-4.354-10.757-7.501
			c-3.992-3.988-8.082-7.879-12.128-11.812c1.335-2.172-0.522-3.021-1.717-4.145c-0.886-0.953-1.773-1.907-2.659-2.86
			c0.585-0.928,0.801-1.948-0.126-2.689c-4.91-3.924-6.177-10.147-8.926-15.256c-4.848-9.006-10.842-16.911-17.646-24.341
			c-2.8-3.057-5.968-5.774-8.867-8.743c-2.306-2.362-5.374-4.196-6.645-7.314c-1.945-4.772-6.389-7.759-8.369-12.513
			c-0.631-1.516-2.477-3.284-3.99-3.522c-3.545-0.557-5.368-3.024-7.531-5.247c0.757-2.583,1.516-5.166,2.279-7.76
			c5.761,2.335,9.88,6.727,14.763,9.849c8.915,5.704,15.244,14.318,23.768,20.092c9.038,6.122,15.945,14.312,24.104,21.229
			c5.333,4.519,8.129,10.466,10.124,16.953c2.905,9.453,8.45,16.31,17.199,21.646c6.623,4.039,13.389,8.024,19.906,12.344
			c19.745,13.084,34.691,31.277,51.082,47.804c7.237,7.298,14.809,14.65,21.137,22.844c6.907,8.943,14.492,17.286,21.51,26.117
			C240.736,233.447,241.537,238.107,238.107,242.957z"/>
		<path fill="#854E21" d="M29.491,35.562c2.163,2.223,3.986,4.69,7.531,5.247c1.513,0.238,3.359,2.007,3.99,3.522
			c1.98,4.754,6.424,7.739,8.369,12.513c1.271,3.119,4.339,4.953,6.645,7.314c2.899,2.969,6.067,5.686,8.867,8.743
			c6.804,7.43,12.797,15.334,17.646,24.341c2.75,5.108,4.016,11.332,8.926,15.256c0.927,0.741,0.711,1.761,0.126,2.689
			c-0.991-0.938-1.979-1.877-2.971-2.814c-2.154-1.958-3.252-4.446-4.167-7.192c-0.851-2.555-1.611-5.445-5.271-5.855
			c-2.349-0.263-2.474-2.624-2.41-4.33c0.1-2.694-0.667-5.072-2.43-6.821c-4.775-4.737-7.691-11.217-13.989-14.543
			c-3.347-1.767-5.621-5.135-6.878-8.315c-2.565-6.49-8.011-10.163-12.8-14.218c-3.789-3.207-7.463-6.536-11.161-9.843
			C28.457,39.361,28.17,37.465,29.491,35.562z"/>
		<path fill="#D2B999" d="M131.742,251.742c-0.713,0.874-2.097,1.826-1.586,2.832c0.669,1.313,2.601,0.963,3.518,0.443
			c1.971-1.117,3.994-1.238,6.102-1.324c1.681,1.615,3.361,3.231,5.041,4.852c0.394,0.441,0.787,0.881,1.182,1.322
			c-5.575,5.869-11.135,11.752-16.741,17.594c-0.968,1.01-1.791,2.363-3.718,1.441c-4.845-2.312-5.659-5.924-2.055-9.726
			c0.795-0.84,1.567-1.698,2.351-2.551c0.107-2.445-1.149-1.435-2.227-0.881c-0.875-0.838-1.749-1.679-2.624-2.515
			c1.025-1.7,0.312-3.235-0.207-5.696c-3.178,3.284-5.774,5.971-8.37,8.651c-1.087-1.018-2.131-2.086-3.269-3.045
			c-1.847-1.551-2.239-2.973-0.315-4.896c5.032-5.035,9.974-10.16,14.852-15.342c1.792-1.904,2.972-1.412,4.977-0.052
			C132.105,245.201,130.529,248.871,131.742,251.742z"/>
		<path fill="#D2B999" d="M87.167,241.865c-0.171-0.248-0.354-0.486-0.552-0.716c0.794-0.935,0.896-1.874,0.018-2.817
			c0.609-0.747,1.223-1.492,1.834-2.239c5.366-5.449,10.732-10.896,16.101-16.346c0,0-0.016-0.013-0.016-0.014
			c7.107,6.8,7.107,6.8,0.125,14.026c-1.958,2.029-3.945,4.034-5.859,6.107c-0.855,0.93-2.116,1.831-1.132,3.396
			c0.862,1.371,2.255,1.045,3.568,1.144c1.808,0.131,2.641-1.193,3.659-2.22c3.744-3.767,7.446-7.571,11.164-11.361
			c0,0-0.021,0.006-0.021,0.005c0.59,0.575,1.117,1.243,1.784,1.71c3.547,2.493,3.77,4.906,0.247,7.739
			c-2.043,1.643-3.701,3.76-5.547,5.647c-4.375,4.479-7.942,10.633-15.908,7.715l0.018,0.034c-2.836-2.768-5.672-5.532-8.507-8.301
			C89.32,243.787,88.323,242.805,87.167,241.865z"/>
		<path fill="#7D4228" stroke="#7D4228" stroke-miterlimit="10" d="M144.816,258.545c-1.681-1.619-3.361-3.234-5.041-4.852
			c5.556-1.354,10.947,1.779,12.057,7.143c0.273,1.328-0.814,3.379,1.611,3.342c1.6-0.022,3.254-0.771,3.755-2.664
			c0.299-1.127,0.35-2.479,1.948-2.348c0.485,0.039,1.121,0.717,1.321,1.242c0.472,1.246-0.034,2.271-1.194,2.928
			c-1.026,0.58-2.599,1.533-0.888,2.406c6.491,3.311,3.661,10.602,6.832,15.297c0.585,0.863,0.136,2.387-0.823,3.203
			c-3.64,3.096-6.854,6.512-9.146,10.766c-0.521,0.971-1.68,1.016-2.602,0.236c-1.022-0.865-2.115-1.434-3.445-1.842
			c-4.288-1.326-8.104-4.603-13.065-2.963c2.148-1.088,2.815-5.438,6.109-3.529c1.858,1.074,4.021,1.533,5.614,2.777
			c2.682,2.09,5.449,3.311,7.877,0.51c3.017-3.478,8.504-5.519,6.783-12.082c-1.414-5.398-6.138-7.572-9.273-11.262
			c-2.52-2.957-5.312-2.947-8.046-0.023c-2.724,2.918-5.54,5.75-8.315,8.619c-6.388,6.604-6.39,6.606-1.621,13.793
			c0.274,0.416,0.6,0.797,0.897,1.191c-1.544,1.916-3.31,2.006-4.228-0.267c-1.08-2.678-4.867-4.014-3.778-7.699
			c-2.178-0.461-4.922-2.364-6.463-0.452c-2.881,3.571-3.166,0.596-3.502-1.128c-0.705-3.631-1.098-7.704,1.613-10.469
			c3.49-3.562,1.832-5.627-1.093-7.896c0.934-0.334,1.606,0.177,2.273,0.707c0.875,0.836,1.749,1.677,2.626,2.515
			c0.741,0.295,1.483,0.588,2.225,0.881c-0.783,0.853-1.556,1.711-2.351,2.551c-3.604,3.802-2.79,7.412,2.055,9.726
			c1.927,0.922,2.75-0.433,3.718-1.441c5.606-5.842,11.166-11.725,16.741-17.594c1.182,0.488,1.709,2.512,4.438,1.158
			C148.232,259.963,148.064,256.688,144.816,258.545z"/>
		<path fill="#D2B999" d="M81.429,234.816c-0.191,0.165-0.381,0.332-0.572,0.501c-1.351-0.756-2.332-2.84-4.35-1.212l0.04,0.03
			c-1.686-1.607-3.43-3.161-5.047-4.835c-4.25-4.401-6.969-10.867-0.3-15.513c1.341-0.934,2.35-2.345,3.512-3.537l-0.021,0.001
			c2.679,2.678,7.386,4.686,2.595,9.596c-0.797,0.816-0.879,3.234,0.793,4.429c1.774,1.268,2.708-0.327,3.679-1.311
			c4.047-4.099,8.034-8.258,12.043-12.394c0.214-0.157,0.422-0.319,0.628-0.489c7.202,6.51,5.891,5.201,0.264,11.178
			C90.36,225.861,85.856,230.303,81.429,234.816z"/>
		<path fill="#7D4228" stroke="#7D4228" stroke-miterlimit="10" d="M96.63,253.641c7.966,2.918,11.533-3.234,15.908-7.714
			c1.846-1.889,3.504-4.006,5.547-5.647c3.523-2.833,3.301-5.247-0.247-7.739c-0.667-0.468-1.193-1.135-1.784-1.71
			c2.354-3.185-3.244-3.882-1.963-7.17c2.074,2.403,6.155,2.95,4.929,7.4c-0.079,0.282,0.071,0.638,0.153,0.949
			c0.868,3.257,5.208-0.807,4.993,1.758c-0.173,2.104-1.327,3.717,1.324,4.629c3.257,1.12,4.021,6.266,8.797,5.188
			c0.926-0.211,0.497,1.943,0.186,3.014c-0.549,1.898-0.918,3.908-2.729,5.146c-1.215-2.871,0.361-6.541-3.094-8.889
			c-2.005-1.361-3.185-1.854-4.977,0.051c-4.877,5.182-9.819,10.307-14.852,15.342c-1.924,1.924-1.532,3.346,0.314,4.896
			c1.138,0.959,2.182,2.026,3.27,3.045l0.002,0.065c-0.46,0.453-0.919,0.906-1.38,1.359c0,0-0.023,0.002-0.023,0
			c-2.155-2.097-4.31-4.189-6.464-6.283c0.635-1.957,1.272-3.914,1.988-6.12c-3.53-0.177-3.241,3.839-5.806,5.021
			C99.848,257.533,98.778,255.213,96.63,253.641z"/>
		<path fill="#7D4228" stroke="#7D4228" stroke-miterlimit="10" d="M81.429,234.816c4.428-4.513,8.931-8.955,13.265-13.556
			c5.627-5.977,6.938-4.668-0.264-11.178c1.234-1.296,2.615-1.218,3.026,0.452c0.891,3.639,5.215,0.925,5.788,2.928
			c0.562,1.959-1.573,4.601,1.324,6.283c-5.368,5.45-10.734,10.898-16.101,16.347C86.539,233.355,83.615,236.121,81.429,234.816z"/>
		<path fill="#7D4228" stroke="#7D4228" stroke-miterlimit="10" d="M116.076,230.823c-3.718,3.79-7.42,7.595-11.164,11.361
			c-1.018,1.026-1.852,2.351-3.659,2.22c-1.313-0.099-2.706,0.229-3.568-1.144c-0.984-1.563,0.277-2.466,1.132-3.396
			c1.914-2.073,3.9-4.078,5.859-6.107c6.983-7.226,6.983-7.226-0.125-14.026c1.138-1.012,2.078-3.196,3.923-1.643
			c1.585,1.334,4.267,2.238,3.53,5.24c-0.079,0.314-0.312,0.597-0.353,0.911C110.876,230.018,110.88,230.019,116.076,230.823z"/>
		<path fill="#804920" d="M95.967,122.192c4.046,3.933,8.136,7.824,12.128,11.812c3.152,3.148,8.234,3.485,10.757,7.501
			c-1.882,0.483-3.219-1.755-5.284-0.978c-0.936,2.256,2.66,2.7,2.159,4.852c-1.747,0.717-2.68-0.724-3.172-1.625
			c-3.356-6.153-10.623-8.862-13.45-15.461c-0.502-1.171-2.008-0.864-2.989-1.297c-3.087-1.365-5.801-3.164-2.424-6.922
			C94.451,120.78,95.21,121.486,95.967,122.192z"/>
		<path fill="#7D4228" stroke="#7D4228" stroke-miterlimit="10" d="M93.801,210.571c-4.009,4.136-7.997,8.295-12.043,12.394
			c-0.972,0.983-1.905,2.579-3.679,1.311c-1.672-1.194-1.59-3.613-0.793-4.429c4.791-4.91,0.083-6.918-2.595-9.596
			c3.771-1.536,4.777,1.935,6.382,3.825c1.283,1.513,1.417,1.433,3.234,0.384C87.195,212.791,90.062,210.405,93.801,210.571z"/>
		<path fill="#7D4228" stroke="#7D4228" stroke-miterlimit="10" d="M74.712,210.25c-1.163,1.192-2.171,2.603-3.512,3.537
			c-6.669,4.646-3.95,11.112,0.3,15.513c1.618,1.674,3.361,3.228,5.047,4.835c-4.028-2.028-8.172-3.933-10.26-8.332
			C63.173,219.242,68.191,210.003,74.712,210.25z"/>
		<path fill="#7D4228" stroke="#7D4228" stroke-miterlimit="10" d="M88.141,245.375c2.835,2.768,5.671,5.533,8.507,8.301
			c-2.9,0.11-3.611-3.106-5.917-3.897c-0.07,0.149-0.235,0.347-0.189,0.444c0.738,1.592,1.087,3.117-0.533,4.424
			c-0.587,0.474-1.711,0.339-1.58-0.024c0.804-2.226-4.054-2.66-1.574-5.237c1.415-1.472,0.211-3.148,0.393-4.717
			C87.544,244.902,87.842,245.139,88.141,245.375z"/>
		<path fill="#7D4228" d="M120.983,263.232c-0.667-0.531-1.339-1.041-2.273-0.707c-1.148,1.192-2.297,2.387-3.445,3.58
			c-0.241,0.246-0.482,0.493-0.725,0.743c-0.227,0.234-0.458,0.47-0.694,0.697c-0.479-0.43-0.959-0.86-1.438-1.293l-0.002-0.065
			c2.596-2.683,5.192-5.367,8.37-8.652C121.296,259.996,122.009,261.531,120.983,263.232z"/>
		<path fill="#804920" d="M117.396,144.793c4.315,1.389,7.897,1.268,9.625,6.364C123.85,148.445,120.129,148.971,117.396,144.793z"
			/>
		<path fill="#7D4228" d="M104.541,261.33c2.155,2.094,4.31,4.188,6.464,6.283C108.459,267.529,104.923,264.092,104.541,261.33z"/>
		<path fill="#804920" d="M88.621,112.373c0.991,0.938,1.98,1.876,2.971,2.814c0.886,0.954,1.773,1.907,2.659,2.86
			c-0.188,0.207-0.385,0.408-0.587,0.603C92.428,116.198,86.848,117.239,88.621,112.373z"/>
		<path fill="#804920" d="M118.808,141.481c3.152-1.697,3.854,1.818,5.787,2.717C122.216,144.25,120.401,143.1,118.808,141.481z"/>
		<path fill="#7D4228" stroke="#7D4228" stroke-miterlimit="10" d="M76.507,234.105c2.018-1.628,2.999,0.456,4.35,1.212
			C78.711,237.424,77.774,235.172,76.507,234.105z"/>
		<path fill="#7D4228" stroke="#7D4228" stroke-miterlimit="10" d="M81.125,210.742c-0.422-0.481-0.979-1.012-0.37-1.633
			c0.61-0.62,1.187-0.098,1.643,0.345c0.459,0.445,0.981,1.013,0.375,1.631C82.158,211.708,81.619,211.15,81.125,210.742z"/>
		<path fill="#854E21" d="M93.663,118.649c0.202-0.195,0.398-0.396,0.587-0.603c1.195,1.124,3.053,1.973,1.717,4.146
			c-0.757-0.706-1.517-1.413-2.276-2.119C93.681,119.599,93.671,119.124,93.663,118.649z"/>
		<path fill="#7D4228" stroke="#7D4228" stroke-miterlimit="10" d="M86.632,238.332c0.879,0.943,0.776,1.883-0.018,2.817
			C86.148,240.207,83.134,239.25,86.632,238.332z"/>
		<path fill="#7D4228" stroke="#7D4228" stroke-miterlimit="10" d="M88.141,245.375c-0.298-0.236-0.596-0.473-0.894-0.708
			c-0.833-0.912-0.9-1.845-0.08-2.802C88.323,242.805,89.32,243.787,88.141,245.375z"/>
		<path fill="#7D4228" d="M112.408,266.254c0.479,0.432,0.959,0.863,1.438,1.293c-0.919,0.902-1.858,0.934-2.818,0.064
			C111.489,267.16,111.948,266.707,112.408,266.254z"/>
		<path fill="#7D4228" d="M114.54,266.85c0.243-0.25,0.484-0.498,0.725-0.744C115.499,266.814,115.256,267.062,114.54,266.85z"/>
		<path fill="#7C4328" d="M144.816,258.545c3.248-1.857,3.416,1.418,5.617,2.48c-2.729,1.354-3.256-0.67-4.438-1.158
			C145.604,259.426,145.209,258.986,144.816,258.545z"/>
		<path fill="#844D21" d="M125.834,266.627c-0.741-0.293-1.483-0.586-2.225-0.881C124.685,265.193,125.941,264.182,125.834,266.627z
			"/>
		<path fill="#D2B999" d="M136.161,290.434c-0.299-0.395-0.623-0.774-0.898-1.19c-4.768-7.187-4.766-7.188,1.622-13.793
			c2.775-2.869,5.592-5.701,8.315-8.619c2.733-2.924,5.526-2.935,8.046,0.022c3.137,3.689,7.859,5.863,9.273,11.263
			c1.721,6.563-3.768,8.604-6.783,12.082c-2.428,2.801-5.195,1.58-7.877-0.511c-1.594-1.243-3.756-1.703-5.614-2.776
			c-3.294-1.908-3.961,2.44-6.109,3.528L136.161,290.434z M152.757,281.197c-0.01-1.639,0.899-3.379-0.901-4.574
			c-1.877-1.244-2.638,0.496-3.621,1.457c-1.193,1.164-1.127,2.406,0.332,3.264C149.926,282.145,151.359,281.854,152.757,281.197z"
			/>
		<path fill="#7D4228" stroke="#7D4228" stroke-miterlimit="10" d="M152.757,281.197c-1.397,0.656-2.831,0.947-4.19,0.146
			c-1.459-0.856-1.525-2.1-0.332-3.264c0.983-0.961,1.744-2.701,3.621-1.457C153.656,277.818,152.747,279.559,152.757,281.197z"/>
	</g>
</g>
</svg>
