<?xml version="1.0" encoding="utf-8"?>
<!-- Generator: Adobe Illustrator 16.0.0, SVG Export Plug-In . SVG Version: 6.00 Build 0)  -->
<!DOCTYPE svg PUBLIC "-//W3C//DTD SVG 1.1//EN" "http://www.w3.org/Graphics/SVG/1.1/DTD/svg11.dtd">
<svg version="1.1" id="Ebene_1" xmlns="http://www.w3.org/2000/svg" xmlns:xlink="http://www.w3.org/1999/xlink" x="0px" y="0px"
	 width="115.937px" height="275.725px" viewBox="0 0 115.937 275.725" enable-background="new 0 0 115.937 275.725"
	 xml:space="preserve">
<path fill="#A67A35" d="M64.989,278.458c-13.641,0-27.722-0.287-38.634-0.789c-19.55-0.899-20.466-1.985-21.436-3.135
	c-1.146-1.357-2.573-163.049-1.555-220.211c0.044-2.369,1.481-3.827,2.432-4.791c0.148-0.15,0.341-0.346,0.49-0.513
	c-0.22-0.353-0.532-0.802-0.749-1.112c-1.026-1.473-1.996-2.863-1.965-4.498c0.17-8.186,0.345-15.44,0.468-20.589
	c0.098-4.1,0.169-7.062,0.171-7.723c0.003-2.731,0.012-11.056,8.626-11.056c0.347,0,2.031-0.064,4.163-0.145
	C24.651,3.606,40.569,3,54.186,3c2.558,0,4.94,0.022,7.082,0.065c4.072,0.082,7.949,0.15,11.608,0.216
	c27.144,0.481,36.691,0.782,39.854,3.407c1.191,0.994,2.049,1.709,2.676,18.218c0.334,8.819,0.517,20.761,0.515,33.624
	c0,1.892-0.524,3.428-0.987,4.781c-0.353,1.035-0.658,1.93-0.663,2.812c-0.014,2.189,0.354,164.682,0.71,167.092
	c0.387,2.619,0.787,5.327,0.74,7.852c-0.541,30.129-1.758,32.129-2.344,33.092C112.333,275.873,110.754,278.458,64.989,278.458z"/>
<path fill="#40190B" d="M117.271,66.144c0.003-0.396,0.245-1.108,0.503-1.862c0.484-1.419,1.147-3.361,1.147-5.751
	c0.002-12.899-0.182-24.881-0.518-33.738c-0.624-16.461-1.427-18.47-3.747-20.404c-3.968-3.293-12.555-3.589-41.727-4.105
	c-3.658-0.065-7.531-0.135-11.602-0.217C59.167,0.022,56.766,0,54.191,0v6l-0.002-6C40.513,0,24.556,0.607,16.888,0.899
	c-1.907,0.072-3.708,0.141-4.055,0.143c-6.02,0-8.795,3.461-9.913,5.523c-1.508,2.781-1.705,6.021-1.708,8.533
	c-0.001,0.621-0.076,3.723-0.17,7.65c-0.124,5.15-0.297,12.409-0.468,20.593c-0.042,2.163,0.918,3.926,1.894,5.394
	c-0.997,1.239-2.058,3.06-2.104,5.53C-0.674,112.56,0.64,274.116,2.628,276.471c1.793,2.126,4.357,2.704,9.798,3.267
	c3.394,0.352,8.034,0.664,13.791,0.928c10.956,0.504,25.088,0.793,38.772,0.793c12.468,0,23.34-0.234,31.438-0.679
	c14.538-0.798,17.622-1.962,19.51-5.055c0.995-1.636,2.228-3.663,2.783-34.606c0.052-2.768-0.366-5.602-0.771-8.342
	C117.594,230.372,117.258,68.103,117.271,66.144z M112.721,241.011c-0.299,16.646-0.951,30.019-1.906,31.589
	c-1.235,2.024-22.732,2.858-45.826,2.858c-27.067,0-56.331-1.145-57.776-2.858C5.681,270.786,5.895,80.685,6.364,54.377
	c0.043-2.319,3.054-3.136,3.097-5.376c0.025-1.375-2.913-4.203-2.888-5.534c0.312-14.965,0.636-26.833,0.64-28.361
	c0.005-4.397,0.738-8.063,5.626-8.063C14.544,7.042,36.424,6,54.186,6c2.44,0,4.8,0.02,7.021,0.064
	c27.949,0.565,46.664,0.489,49.607,2.933c1.437,1.197,2.11,25.019,2.106,49.533c0,2.771-1.634,4.816-1.65,7.575
	C111.241,70.956,112.806,236.473,112.721,241.011z"/>
<path opacity="0.35" fill="#7A3017" d="M110.815,272.6c0.853-1.403,1.463-12.227,1.799-26.386c-2.908,1.655-6.124,4.085-7.531,5.924
	c-1.655,2.163-1.557,8.475-3.587,10.293c-2.299,2.063-8.986,3.169-12.054,2.771c-3.377-0.44-9.613-3.976-12.053-6.354
	c-1.672-1.629-3.19-6.256-4.559-8.145c-2.329-3.203-7.127-10.043-10.753-11.63c-3.51-1.534-11.511-0.465-15.315,0
	c-2.828,0.347-8.743,1.106-11.072,2.753c-2.175,1.535-3.522,7.617-5.864,8.877c-2.081,1.119-7.208,0.738-9.451,0
	c-1.825-0.6-5.135-2.953-6.188-4.561c-0.998-1.516-0.315-5.818-1.629-7.069c-0.709-0.674-3.195-0.983-4.154-0.798
	c-0.679,0.133-1.711,0.455-2.363,1.481c-0.103,17.302,0.133,31.61,1.173,32.844C9.891,275.776,108.131,276.998,110.815,272.6z"/>
<path fill="#FAA819" d="M6.393,266.851c0.187,3.242,0.453,5.314,0.82,5.749c2.679,3.177,100.919,4.398,103.603,0
	c0.311-0.511,0.588-2.272,0.833-4.98c-3.464,2.036-9.997,3.619-18.182,4.755c-12.495,1.733-26.001,0.349-41.163,0.022
	c-8.912-0.191-20.257,1.342-27.327,0.452C14.775,271.565,7.557,269.561,6.393,266.851z"/>
<path fill="#FAA819" d="M14.186,246.142c1.054,1.607,4.363,3.961,6.188,4.561c2.243,0.738,7.37,1.119,9.451,0
	c1.497-0.807,2.593-3.594,3.758-5.896l0,0c0,0-3.237,4.681-5.311,5.002c-4.721,0.732-11.644-2.525-13.272-4.888
	c-0.874-1.266-1.621-3.503-1.621-3.503l0,0C13.597,243.124,13.559,245.187,14.186,246.142z"/>
<path fill="#FAA819" d="M77.389,258.847c2.439,2.379,8.676,5.914,12.053,6.354c3.067,0.398,9.755-0.707,12.054-2.771
	c1.108-0.992,1.582-3.326,2.052-5.59l0,0c0,0-2.479,4.146-3.698,4.756c-1.224,0.61-7.941,1.895-10.078,1.648
	c-2.142-0.244-9.899-4.947-11.486-5.741c-1.313-0.657-4.175-4.866-5.135-6.31C74.438,253.296,75.85,257.346,77.389,258.847z"/>
<path opacity="0.5" fill="#FFFFFF" d="M110.815,8.997c-2.943-2.443-21.658-2.367-49.607-2.933
	c-18.395-0.37-46.429,0.978-48.369,0.978c-4.888,0-5.621,3.666-5.626,8.063c0,0.756-0.081,4.034-0.2,8.962
	c0.942-1.566,1.501-5.379,2.61-6.832c1.011-1.318,3.735-3.637,5.378-3.908c2.648-0.439,7.613,2.736,10.262,3.176
	c4.18,0.695,12.739,0.959,16.949,0.488c3.677-0.408,10.658-3.203,14.326-3.664c5.336-0.672,16.279-1.279,21.504,0
	c2.824,0.691,8.206,3.369,10.309,5.375c1.126,1.072,2.022,4.276,3.131,5.366c2.043,2.015,8.069,3.517,10.015,5.63
	c2.78,3.016,3.391,12.691,6.845,14.905c0.998,0.641,2.688,1.01,4.518,1.129C112.666,26.312,112,9.983,110.815,8.997z"/>
<path opacity="0.25" d="M86.914,59.892c-0.632,1.637-3.289,2.137-5.941,1.113c-2.648-1.021-4.286-3.177-3.655-4.814
	c0.631-1.636,5.404-2.666,8.053-1.645C88.022,55.567,87.548,58.255,86.914,59.892z"/>
<path opacity="0.25" d="M80.704,48.736c-0.576,1.493-2.598,2.999-4.619,2.22s-3.275-3.549-2.7-5.041
	c0.58-1.495,2.683-2.075,4.704-1.295C80.111,45.399,81.284,47.243,80.704,48.736z"/>
<path opacity="0.25" d="M46.195,265.694c-0.025-1.365,1.113-3.203,3.003-3.234c1.889-0.033,3.805,1.75,3.83,3.113
	c0.021,1.363-1.488,2.496-3.374,2.529C47.764,268.134,46.212,267.058,46.195,265.694z"/>
<path opacity="0.25" d="M25.637,43.286c-0.508,1.15-2.222,1.504-3.825,0.789c-1.604-0.713-2.491-2.223-1.979-3.372
	s1.301-2.597,2.904-1.882C24.341,39.533,26.149,42.136,25.637,43.286z"/>
<ellipse transform="matrix(-0.9912 -0.1325 0.1325 -0.9912 48.0652 533.7598)" opacity="0.25" cx="41.791" cy="265.281" rx="2.605" ry="2.315"/>
</svg>
