<?xml version="1.0" encoding="utf-8"?>
<!-- Generator: Adobe Illustrator 16.0.0, SVG Export Plug-In . SVG Version: 6.00 Build 0)  -->
<!DOCTYPE svg PUBLIC "-//W3C//DTD SVG 1.1//EN" "http://www.w3.org/Graphics/SVG/1.1/DTD/svg11.dtd">
<svg version="1.1" xmlns="http://www.w3.org/2000/svg" xmlns:xlink="http://www.w3.org/1999/xlink" x="0px" y="0px" width="260px"
	 height="484px" viewBox="0 0 260 484" enable-background="new 0 0 260 484" xml:space="preserve">
<g id="Ebene_2_1_">
	<g id="Ebene_2">
		<path fill="#74452A" d="M245.22,297.834c-0.94,24.283,2.667,169.753-16.162,170.385c-3.709,0.129,4.693,17.78-72.235-58.213
			l-0.688-0.695c-6.161-6.375-7.898-12.233-9.426-17.401c-1.377-4.651-2.468-8.323-6.848-12.857
			c-3.921-4.003-12.151-9.041-20.11-13.917c-9.154-5.601-17.797-10.896-22.735-16.004c-0.009-0.008-0.124-0.129-0.136-0.141
			C9.422,257.273,10.395,247.217,10.812,242.922c1.251-12.859,96.835-107.208,123.501-132.579
			c17.314-16.469,106.44-104.428,106.835-93.77C249.035,230.615,247.73,233.089,245.22,297.834z"/>
		<path fill="#F5871F" d="M187.176,402.258c-11.194-10.646-17.074-32.008-28.629-43.374c-8.961-8.812-35.591-17.278-44.281-26.058
			c-7.34-7.41-26.311-21.936-32.829-29.096c-4.44-4.879-8.846-15.777-12.903-20.481c-3.759-4.362-23.572-23.529-26.993-27.695
			c-13.795-16.816-7.88-21.497-6.949-32.205c-6.965,8.77-16.643,20.997-16.931,24.651c-0.622,7.979,39.227,51.763,86.099,99.095
			c8.692,8.776,34.36,20.216,43.32,29.03c11.558,11.364,6.421,20.053,17.614,30.701c42.412,40.34,59.664,72.887,71.774,55.44
			c1.883-2.712,2.971-60.46,4.646-10.307C214.174,445.146,219.194,432.713,187.176,402.258z"/>
		<path fill="#40190B" d="M244.979,12.611c-5.845-5.776-2.431-8.74-24.015,9.076c-12.25,10.111-76.556,69.63-91.356,83.713
			C69.314,162.765,4.517,237.296,4.037,242.246c-0.716,7.369-1.68,17.446,87.937,111.422c0.023,0.023,0.149,0.152,0.17,0.175
			c5.537,5.73,14.526,11.262,24.06,17.099c7.251,4.438,15.462,9.478,18.638,12.727l0.116,0.122c3.22,3.336,3.925,5.721,5.205,10.056
			c1.581,5.328,3.746,12.631,11.067,20.206c0.257,0.267,0.524,0.539,0.798,0.808c51.434,50.811,68.617,63.03,74.695,63.627
			c0,0,3.551,0.063,5.811-2.039l0.477-0.369c8.033-6.398,11.333-26.438,13.582-68.266c1.769-32.883-0.072-87.899,2.085-129.145
			c0.788-15.016,0.798-30.976,1.08-47.417l-15.452-0.264l15.451,0.26v-0.003c0.709-41.785,2.119-86.466,1.699-123.797
			c-0.697-61.735,1.078-87.424-5.275-93.511C246.18,13.937,246.514,14.244,244.979,12.611z M161.616,405.151
			c-0.198-0.193-0.389-0.393-0.573-0.585c-10.177-10.526-5.379-18.978-16.275-30.257c-0.061-0.063-0.136-0.11-0.198-0.172
			c-8.755-8.945-34.042-20.797-42.672-29.725c-0.034-0.035-0.069-0.071-0.104-0.107c-45.935-48.243-83.332-91.046-82.557-99.012
			C21.042,226.727,222.845,29.17,233.879,29.007c7.352,7.139,1.918,114.033,0.422,201.978c-0.269,15.752-0.782,31.516-1.586,46.851
			c-3.651,69.788,1.747,161.379-7.58,182.103C214.711,454.039,192.747,435.903,161.616,405.151z"/>
		<path fill="#251B14" d="M58.839,235.439c-3.841,4.049-6.811,3.886-9.362,0.961c-3.353-3.834-4.413-8.56-1.075-12.589
			c2.338-2.83,6.793-4.516,9.811-1.25C62.176,226.851,60.828,231.927,58.839,235.439z"/>
	</g>
</g>
<g id="Ebene_1">
	<path fill="#D4BB9A" d="M152.914,213.97c-5.105,5.194-10.417,10.204-15.236,15.651c-3.152,3.561-5.611,4.063-8.538,0.076
		c-0.776-1.059-1.802-1.936-2.714-2.895c1.62-1.671,3.199-3.387,4.877-5.001c1.561-1.499,1.35-2.721-0.123-4.188
		c-1.514-1.504-2.739-1.525-4.186,0.016c-1.592,1.697-3.291,3.297-4.943,4.937l0.024,0.001c-1.085-1.027-2.08-2.181-3.275-3.06
		c-3.627-2.664-3.251-4.895-0.013-7.844c5.521-5.028,10.646-10.491,15.938-15.772c0.176,0.19,0.375,0.349,0.599,0.479
		c5.723,5.611,5.809,5.678,1.229,11.522c-1.418,1.811-0.881,2.803,0.429,4.181c1.879,1.977,3.067,0.79,4.52-0.555
		c4.811-4.459,4.842-4.427,9.434,0.281c0.694,0.714,1.373,1.443,2.059,2.165L152.914,213.97z"/>
	<path fill="#D4BB9A" d="M205.104,265.164c1.504,1.55,2.949,3.163,4.527,4.636c1.955,1.827,2.883,3.506,0.559,5.847
		c-2.043,2.059-3.891,2.533-5.821,0.139c-2.312-2.867-4.039-1.646-5.991,0.488c-2.691,2.942-5.693,5.604-8.359,8.569
		c-2.017,2.24-3.445,1.669-5.307-0.189c-1.896-1.896-2.984-3.388-0.453-5.675c2.956-2.673,5.549-5.746,8.488-8.44
		c2.29-2.099,2.904-3.964,0.161-6.035c-3.032-2.289-1.39-3.969,0.483-5.999c2.18-2.359,3.616-1.303,5.287,0.473
		c1.365,1.449,2.885,2.754,4.335,4.122C203.712,263.787,204.407,264.477,205.104,265.164z"/>
	<path fill="#D4BB9A" d="M171.857,271.732c-3.104-2.991-6.264-5.927-9.297-8.985c-4.137-4.172-4.168-8.666,0.157-12.79
		c3.626-3.458,6.329-8.025,11.757-9.423c2.629-0.678,4.896-0.934,6.737,1.229c3.044,3.574,7.668,5.741,8.963,10.937
		c0.534,2.141,0.211,3.367-1.196,4.767c-3.881,3.856-7.845,7.646-11.472,11.732c-1.643,1.848-3.883,1.491-5.665,2.537
		C171.844,271.734,171.857,271.732,171.857,271.732z M174.287,252.295c-1.387,1.403-1.969,1.98-2.539,2.572
		c-1.355,1.404-3.086,2.604-0.955,4.854c2.205,2.323,3.648,1.08,5.229-0.65c1.328-1.454,2.752-2.82,4.103-4.254
		c0.974-1.031,0.808-2.092-0.132-3.033c-0.895-0.896-1.747-2.366-3.221-1.59C175.505,250.861,174.53,252.081,174.287,252.295z"/>
	<path fill="#D4BB9A" d="M162.633,244.206c-8.037,9.219-10.078,8.522-19.052,0.069c-4.772-4.494-5.532-10.99,0.069-15.186
		c2.244-1.678,4.012-3.99,6.024-5.981c4.213-4.166,8.677-4.289,12.789,0.159c2.599,2.81,6.759,4.481,7.058,9.178
		C169.802,236.847,169.912,236.841,162.633,244.206z M157.27,238.117c0.004,0.004,0.01,0.009,0.015,0.013
		c0.348-0.353,0.672-0.736,1.051-1.054c2.334-1.957,3.376-3.735,0.562-6.429c-2.662-2.543-4.248-1.361-6.076,0.729
		c-0.979,1.119-2.08,2.131-3.119,3.196c-1.916,1.965-2.137,4.417-0.309,6.145c1.604,1.517,3.979,1.247,5.78-0.484
		C155.887,239.544,156.572,238.822,157.27,238.117z"/>
	<path fill="#D4BB9A" d="M96.702,197.312c5.746-8.149,9.555-0.634,13.865,2.284c0.964-1.956-0.316-2.556-0.984-3.325
		c-3.984-4.591-3.655-8.817,1.077-13.229c3.579-3.336,8.137-3.011,12.129,0.94c2.956,2.924,5.842,5.919,8.757,8.882
		c-2.229,1.53-3.216,6.014-7.023,3.726c-2.458-1.477-4.267-4.038-7.217-6.954c0.008,4.811,4.028,6.021,4.423,9.514
		c0.247,2.188,0.534,3.609-1.077,5.136c-1.446,1.371-2.823,2.816-4.205,4.254c-2.813,2.927-5.651,3.071-8.548,0.129
		C104.168,204.881,100.434,201.099,96.702,197.312z"/>
</g>
</svg>
