<?xml version="1.0" encoding="utf-8"?>
<!-- Generator: Adobe Illustrator 16.0.0, SVG Export Plug-In . SVG Version: 6.00 Build 0)  -->
<!DOCTYPE svg PUBLIC "-//W3C//DTD SVG 1.1//EN" "http://www.w3.org/Graphics/SVG/1.1/DTD/svg11.dtd">
<svg version="1.1" id="Ebene_1" xmlns="http://www.w3.org/2000/svg" xmlns:xlink="http://www.w3.org/1999/xlink" x="0px" y="0px"
	 width="249.521px" height="484px" viewBox="10.479 0 249.521 484" enable-background="new 10.479 0 249.521 484"
	 xml:space="preserve">
<g id="Dzwivd_1_">
	<g>
		<path fill="#8F6235" d="M91.741,250.639c-9.822-10.177-19.662-20.339-29.457-30.541c-3.532-3.678-3.437-4.532,1.416-5.376
			c8.507-1.479,17.103-2.468,25.666-3.622c11.953-1.611,23.913-3.179,35.868-4.782c3.394-0.455,6.802-0.407,10.233-1.062
			c2.742-0.523,3.859,2.499,3.393,5.33c-1.172,7.12-2.401,14.228-3.555,21.352c-2.447,15.155-4.86,30.314-7.285,45.473
			c-0.363,2.254-0.201,4.957-2.827,5.883c-2.675,0.938-3.64-1.813-5.014-3.213c-9.557-9.735-18.993-19.595-28.469-29.412
			C91.72,250.658,91.73,250.648,91.741,250.639z"/>
	</g>
</g>
</svg>
