<?xml version="1.0" encoding="utf-8"?>
<!-- Generator: Adobe Illustrator 16.0.0, SVG Export Plug-In . SVG Version: 6.00 Build 0)  -->
<!DOCTYPE svg PUBLIC "-//W3C//DTD SVG 1.1//EN" "http://www.w3.org/Graphics/SVG/1.1/DTD/svg11.dtd">
<svg version="1.1" id="Ebene_1" xmlns="http://www.w3.org/2000/svg" xmlns:xlink="http://www.w3.org/1999/xlink" x="0px" y="0px"
	 width="120.731px" height="116.273px" viewBox="0 0 120.731 116.273" enable-background="new 0 0 120.731 116.273"
	 xml:space="preserve">
<polygon fill="#A55C37" points="13.427,20.305 38.034,5.931 60.2,1.125 87.918,5.931 105.087,16.456 116.697,36.931 118.7,63.821 
	116.179,83.931 104.089,105.39 82.368,112.273 58.074,116.273 17.378,102.265 4.002,77.919 1.701,46.092 "/>
<path fill="#23150C" d="M118.001,35.893C115.21,25.016,104.183,14.08,94.73,8.899C84.277,3.169,64.261,0,54.42,0
	c-2.156,0-3.869,0.137-5.238,0.418c-8.043,1.658-26.047,7.895-33.229,15.463C10.617,21.504,2.129,34.723,0.734,43.912
	c-2.303,15.191,0.707,44.814,10.49,54.848c8.835,9.062,29.654,15.604,40.943,17.171c1.641,0.228,3.627,0.343,5.906,0.343
	c12.502,0,35.974-3.729,44.298-9.573C120.058,94.275,124.255,60.271,118.001,35.893z M100.073,103.426
	c-7.057,4.955-29.09,8.848-41.999,8.848c-2.047,0-3.864-0.098-5.355-0.305c-11.023-1.53-30.663-7.829-38.631-16.002
	C5.901,87.57,2.397,59.632,4.689,44.513c1.193-7.872,8.863-20.29,14.164-25.879c6.34-6.681,23.227-12.668,31.135-14.298
	C51.094,4.109,52.608,4,54.42,4c10.021,0,29.138,3.336,38.387,8.406c8.075,4.427,18.757,14.488,21.319,24.48
	C120.026,59.885,115.983,92.25,100.073,103.426z"/>
<path opacity="0.35" fill="#7A3017" d="M116.179,68.468c-0.08,0.283-5.756,20.216-11.137,24.522c-2.967,2.375-5.469,2.461-7.547,4.3
	c-2.071,1.832-1.907,4.346-1.907,4.346s-21.602,8.205-40.596,6.911c-0.74-2.755-3.129-10.447-3.129-10.447l-1.574,10.337
	c0,0-22.877-2.264-34.988-13.009c-4.119-3.653-7.068-10.757-7.238-11.231c1.569,5.062,3.578,9.261,6.025,11.771
	c7.968,8.173,27.607,14.472,38.631,16.002c10.901,1.513,39.18-2.803,47.354-8.543C109.411,96.865,114.599,83.258,116.179,68.468z"/>
<path opacity="0.5" fill="#FFFFFF" d="M97.159,15.172c-1.495-1.07-2.962-2.004-4.353-2.766C81.885,6.419,57.206,2.85,49.988,4.336
	c-7.908,1.63-24.795,7.617-31.135,14.298c-0.473,0.5-0.969,1.069-1.476,1.671l9.964-5.643c0,0,18.189-6.524,22.724-7.297
	c4.533-0.773,19.616,1.301,19.616,1.301s0.566,1.398,1.901,2.342c1.331,0.941,4.748,0.039,8.152,0.565
	c3.394,0.526,6.659,2.206,9.903,4.046C92.86,17.447,97.159,15.172,97.159,15.172z"/>
<path opacity="0.25" fill="#19120D" d="M70.893,74.52c0.242,1.682-0.531,3.193-1.723,3.381c-1.193,0.186-2.361-1.023-2.611-2.707
	c-0.252-1.689,0.518-3.218,1.72-3.404C69.482,71.602,70.652,72.826,70.893,74.52z"/>
<path opacity="0.25" fill="#19120D" d="M13.375,63.04c0.311,1.431-0.827,3.222-1.828,3.378c-1.002,0.154-2.072-0.875-2.391-2.301
	c-0.322-1.434,0.234-2.726,1.244-2.883C11.408,61.081,13.062,61.604,13.375,63.04z"/>
<path opacity="0.25" fill="#19120D" d="M97.876,52.574c-0.039,1.166-0.848,2.099-1.801,2.086c-0.956-0.011-1.703-0.965-1.668-2.133
	c0.036-1.17,0.843-2.109,1.807-2.097C97.171,50.443,97.917,51.405,97.876,52.574z"/>
<path opacity="0.25" fill="#19120D" d="M10.082,57.77c0.075,0.963-0.445,1.736-1.161,1.727c-0.718-0.006-1.363-0.793-1.442-1.754
	c-0.08-0.964,0.44-1.742,1.16-1.732C9.36,56.018,10.006,56.809,10.082,57.77z"/>
<path opacity="0.35" fill="#7A3017" d="M114.126,36.887c-0.975-3.796-3.123-7.601-5.852-11.104l3.078,6.688l-2.334,3.666
	l-10.07,3.914h12.404l3.5,10.38l1.506,15.969C117.216,56.35,116.438,45.9,114.126,36.887z"/>
<path opacity="0.35" fill="#7A3017" d="M4.689,44.513c-0.905,5.97-0.902,13.937-0.069,21.91l0.856-4.661l0.625-4.009l-0.625-6.616
	l0.875-4.977h4.533l-3.414-2.674L6.977,41.25l3.109-10.27C7.425,35.689,5.275,40.648,4.689,44.513z"/>
</svg>
